<svg width="1861" height="725" viewBox="0 0 1861 725" fill="none" xmlns="http://www.w3.org/2000/svg">
<path d="M-52.5388 699.115C-52.5388 699.115 88.2216 -369.426 816.255 431.328C1544.29 1232.08 2279.26 189.24 1572.78 -383.765" stroke="url(#paint0_radial_50_16351)" stroke-width="0.25" stroke-miterlimit="10"/>
<path opacity="0.98" d="M-41.093 695.95C-41.093 695.95 98.4498 -363.653 820.76 430.583C1543.07 1224.82 2271.71 191.102 1571.2 -377.806" stroke="url(#paint1_radial_50_16351)" stroke-width="0.25" stroke-miterlimit="10"/>
<path opacity="0.95" d="M-29.647 692.97C-29.647 692.97 108.678 -357.694 825.022 429.652C1541.37 1217 2263.68 192.219 1569.01 -371.102" stroke="url(#paint2_radial_50_16351)" stroke-width="0.25" stroke-miterlimit="10"/>
<path opacity="0.93" d="M-18.201 689.99C-18.201 689.99 118.906 -351.921 829.162 429.28C1539.42 1210.48 2255.76 193.895 1566.82 -365.516" stroke="url(#paint3_radial_50_16351)" stroke-width="0.25" stroke-miterlimit="10"/>
<path opacity="0.9" d="M-6.75507 686.452C-6.75507 686.452 129.257 -346.521 833.424 427.604C1537.59 1201.73 2247.73 194.826 1564.75 -359.929" stroke="url(#paint4_radial_50_16351)" stroke-width="0.25" stroke-miterlimit="10"/>
<path opacity="0.88" d="M4.56897 684.031C4.56897 684.031 139.485 -340.189 837.564 427.417C1535.64 1195.02 2239.81 195.943 1562.68 -354.715" stroke="url(#paint5_radial_50_16351)" stroke-width="0.25" stroke-miterlimit="10"/>
<path opacity="0.85" d="M16.015 680.865C16.015 680.865 149.713 -334.23 841.826 425.741C1533.94 1185.71 2231.9 196.502 1560.24 -348.756" stroke="url(#paint6_radial_50_16351)" stroke-width="0.25" stroke-miterlimit="10"/>
<path opacity="0.83" d="M27.4609 677.886C27.4609 677.886 159.941 -328.457 845.966 425.741C1531.99 1179.94 2223.86 198.364 1559.02 -341.865" stroke="url(#paint7_radial_50_16351)" stroke-width="0.25" stroke-miterlimit="10"/>
<path opacity="0.8" d="M38.9069 674.906C38.9069 674.906 170.17 -322.498 850.106 425.741C1530.04 1173.98 2215.95 200.413 1556.34 -335.161" stroke="url(#paint8_radial_50_16351)" stroke-width="0.25" stroke-miterlimit="10"/>
<path opacity="0.78" d="M50.3527 671.927C50.3527 671.927 180.398 -316.726 854.003 424.252C1527.61 1165.23 2207.54 200.785 1553.91 -329.947" stroke="url(#paint9_radial_50_16351)" stroke-width="0.25" stroke-miterlimit="10"/>
<path opacity="0.76" d="M61.3116 668.947C61.3116 668.947 190.383 -310.766 858.142 423.32C1525.9 1157.41 2199.63 202.089 1552.2 -323.988" stroke="url(#paint10_radial_50_16351)" stroke-width="0.25" stroke-miterlimit="10"/>
<path opacity="0.73" d="M73.4881 665.781C73.4881 665.781 201.342 -304.994 863.135 422.575C1524.93 1150.14 2192.2 203.206 1550.13 -318.029" stroke="url(#paint11_radial_50_16351)" stroke-width="0.25" stroke-miterlimit="10"/>
<path opacity="0.71" d="M84.5687 662.802C84.5687 662.802 211.204 -299.034 866.91 421.831C1522.61 1142.7 2184.04 204.51 1547.94 -312.07" stroke="url(#paint12_radial_50_16351)" stroke-width="0.25" stroke-miterlimit="10"/>
<path opacity="0.68" d="M96.0146 659.822C96.0146 659.822 221.433 -293.261 871.171 421.086C1520.91 1135.43 2176.01 205.627 1545.87 -305.18" stroke="url(#paint13_radial_50_16351)" stroke-width="0.25" stroke-miterlimit="10"/>
<path opacity="0.66" d="M107.339 656.843C107.339 656.843 231.783 -287.302 875.311 420.341C1518.84 1127.98 2167.85 206.931 1543.8 -300.524" stroke="url(#paint14_radial_50_16351)" stroke-width="0.25" stroke-miterlimit="10"/>
<path opacity="0.63" d="M118.785 653.863C118.785 653.863 241.889 -281.902 879.451 419.41C1517.01 1120.72 2160.18 208.048 1541.73 -294.006" stroke="url(#paint15_radial_50_16351)" stroke-width="0.25" stroke-miterlimit="10"/>
<path opacity="0.61" d="M130.231 650.884C130.231 650.884 251.996 -275.57 883.713 418.665C1515.43 1112.9 2152.14 209.351 1539.66 -288.047" stroke="url(#paint16_radial_50_16351)" stroke-width="0.25" stroke-miterlimit="10"/>
<path opacity="0.59" d="M141.677 647.718C141.677 647.718 262.468 -269.797 887.853 417.92C1513.24 1105.64 2144.23 210.469 1537.47 -281.902" stroke="url(#paint17_radial_50_16351)" stroke-width="0.25" stroke-miterlimit="10"/>
<path opacity="0.56" d="M153.122 644.738C153.122 644.738 272.696 -263.28 892.115 417.175C1511.53 1097.63 2136.19 212.331 1535.4 -276.129" stroke="url(#paint18_radial_50_16351)" stroke-width="0.25" stroke-miterlimit="10"/>
<path opacity="0.54" d="M164.447 641.759C164.447 641.759 282.924 -258.065 896.255 416.244C1509.59 1090.55 2128.27 213.076 1533.33 -270.17" stroke="url(#paint19_radial_50_16351)" stroke-width="0.25" stroke-miterlimit="10"/>
<path opacity="0.51" d="M175.893 638.779C175.893 638.779 293.152 -252.106 900.517 415.313C1507.88 1082.73 2120.24 214.193 1531.26 -263.28" stroke="url(#paint20_radial_50_16351)" stroke-width="0.25" stroke-miterlimit="10"/>
<path opacity="0.49" d="M187.338 635.799C187.338 635.799 303.502 -246.334 904.657 414.754C1505.81 1075.84 2112.32 215.497 1529.19 -258.066" stroke="url(#paint21_radial_50_16351)" stroke-width="0.25" stroke-miterlimit="10"/>
<path opacity="0.46" d="M198.784 632.634C198.784 632.634 313.731 -240.374 908.919 414.009C1504.11 1068.39 2104.29 216.614 1527 -252.106" stroke="url(#paint22_radial_50_16351)" stroke-width="0.25" stroke-miterlimit="10"/>
<path opacity="0.44" d="M210.109 630.585C210.109 630.585 323.959 -234.602 913.667 413.078C1503.38 1060.76 2096.98 217.918 1525.54 -246.147" stroke="url(#paint23_radial_50_16351)" stroke-width="0.25" stroke-miterlimit="10"/>
<path opacity="0.41" d="M221.555 626.675C221.555 626.675 334.187 -228.642 917.199 412.333C1500.21 1053.31 2088.34 219.035 1522.86 -239.443" stroke="url(#paint24_radial_50_16351)" stroke-width="0.25" stroke-miterlimit="10"/>
<path opacity="0.39" d="M233 623.695C233 623.695 344.415 -222.869 921.46 411.589C1498.51 1046.05 2080.42 220.897 1520.79 -234.229" stroke="url(#paint25_radial_50_16351)" stroke-width="0.25" stroke-miterlimit="10"/>
<path opacity="0.37" d="M243.959 620.716C243.959 620.716 353.548 -217.283 925.113 410.844C1496.68 1038.97 2072.51 220.897 1518.6 -228.27" stroke="url(#paint26_radial_50_16351)" stroke-width="0.25" stroke-miterlimit="10"/>
<path opacity="0.34" d="M256.136 617.55C256.136 617.55 365.724 -211.138 930.106 409.912C1494.49 1030.96 2064.71 223.69 1516.77 -222.125" stroke="url(#paint27_radial_50_16351)" stroke-width="0.25" stroke-miterlimit="10"/>
<path opacity="0.32" d="M267.216 614.57C267.216 614.57 375.222 -204.806 934.002 409.726C1492.78 1024.26 2056.55 223.504 1514.46 -215.607" stroke="url(#paint28_radial_50_16351)" stroke-width="0.25" stroke-miterlimit="10"/>
<path opacity="0.29" d="M278.662 611.963C278.662 611.963 385.45 -199.406 938.02 408.423C1490.59 1016.25 2048.27 225.18 1512.14 -210.207" stroke="url(#paint29_radial_50_16351)" stroke-width="0.25" stroke-miterlimit="10"/>
<path opacity="0.27" d="M290.108 608.611C290.108 608.611 395.679 -193.446 942.404 407.119C1489.13 1007.68 2040.6 226.298 1510.32 -204.247" stroke="url(#paint30_radial_50_16351)" stroke-width="0.25" stroke-miterlimit="10"/>
<path opacity="0.24" d="M301.554 605.632C301.554 605.632 405.907 -187.674 946.909 406.747C1487.91 1001.17 2032.81 227.601 1508.37 -198.288" stroke="url(#paint31_radial_50_16351)" stroke-width="0.25" stroke-miterlimit="10"/>
<path opacity="0.22" d="M312.878 602.466C312.878 602.466 416.135 -181.714 950.806 406.002C1485.48 993.718 2024.65 228.905 1506.05 -192.329" stroke="url(#paint32_radial_50_16351)" stroke-width="0.25" stroke-miterlimit="10"/>
<path opacity="0.2" d="M324.324 599.486C324.324 599.486 426.607 -175.942 954.946 405.257C1483.28 986.455 2016.62 230.022 1503.98 -186.37" stroke="url(#paint33_radial_50_16351)" stroke-width="0.25" stroke-miterlimit="10"/>
<path opacity="0.17" d="M335.77 596.507C335.77 596.507 436.713 -169.983 959.208 404.512C1481.7 979.007 2008.7 231.326 1501.91 -180.225" stroke="url(#paint34_radial_50_16351)" stroke-width="0.25" stroke-miterlimit="10"/>
<path opacity="0.15" d="M347.216 593.341C347.216 593.341 446.942 -164.396 963.348 403.395C1479.75 971.185 2000.79 232.257 1499.84 -173.893" stroke="url(#paint35_radial_50_16351)" stroke-width="0.25" stroke-miterlimit="10"/>
<path opacity="0.12" d="M358.662 590.548C358.662 590.548 457.17 -158.251 967.488 402.836C1477.81 963.923 1992.75 233.746 1498.14 -168.307" stroke="url(#paint36_radial_50_16351)" stroke-width="0.25" stroke-miterlimit="10"/>
<path opacity="0.1" d="M369.986 587.382C369.986 587.382 467.398 -152.478 971.749 402.091C1476.1 956.66 1984.84 234.491 1495.34 -162.347" stroke="url(#paint37_radial_50_16351)" stroke-width="0.25" stroke-miterlimit="10"/>
<path opacity="0.07" d="M381.432 584.402C381.432 584.402 477.748 -146.519 976.011 401.346C1474.27 949.211 1976.8 236.167 1493.51 -156.388" stroke="url(#paint38_radial_50_16351)" stroke-width="0.25" stroke-miterlimit="10"/>
<path opacity="0.05" d="M392.878 581.423C392.878 581.423 487.977 -140.746 980.151 400.415C1472.33 941.576 1968.88 237.285 1491.56 -150.429" stroke="url(#paint39_radial_50_16351)" stroke-width="0.25" stroke-miterlimit="10"/>
<path opacity="0.02" d="M404.324 578.443C404.324 578.443 498.205 -134.787 984.413 399.67C1470.62 934.127 1960.85 239.519 1489.37 -144.47" stroke="url(#paint40_radial_50_16351)" stroke-width="0.25" stroke-miterlimit="10"/>
<defs>
<radialGradient id="paint0_radial_50_16351" cx="0" cy="0" r="1" gradientUnits="userSpaceOnUse" gradientTransform="translate(903.286 169.466) rotate(90) scale(553.231 955.825)">
<stop stop-color="#1F68DC"/>
<stop offset="1" stop-color="#05DCED" stop-opacity="0"/>
</radialGradient>
<radialGradient id="paint1_radial_50_16351" cx="0" cy="0" r="1" gradientUnits="userSpaceOnUse" gradientTransform="translate(907.016 170.936) rotate(90) scale(548.742 948.108)">
<stop stop-color="#1F68DC"/>
<stop offset="1" stop-color="#05DCED" stop-opacity="0"/>
</radialGradient>
<radialGradient id="paint2_radial_50_16351" cx="0" cy="0" r="1" gradientUnits="userSpaceOnUse" gradientTransform="translate(910.482 172.571) rotate(90) scale(543.673 940.129)">
<stop stop-color="#1F68DC"/>
<stop offset="1" stop-color="#05DCED" stop-opacity="0"/>
</radialGradient>
<radialGradient id="paint3_radial_50_16351" cx="0" cy="0" r="1" gradientUnits="userSpaceOnUse" gradientTransform="translate(913.954 174.072) rotate(90) scale(539.587 932.155)">
<stop stop-color="#1F68DC"/>
<stop offset="1" stop-color="#05DCED" stop-opacity="0"/>
</radialGradient>
<radialGradient id="paint4_radial_50_16351" cx="0" cy="0" r="1" gradientUnits="userSpaceOnUse" gradientTransform="translate(917.432 174.775) rotate(90) scale(534.704 924.187)">
<stop stop-color="#1F68DC"/>
<stop offset="1" stop-color="#05DCED" stop-opacity="0"/>
</radialGradient>
<radialGradient id="paint5_radial_50_16351" cx="0" cy="0" r="1" gradientUnits="userSpaceOnUse" gradientTransform="translate(920.864 176.043) rotate(90) scale(530.758 916.295)">
<stop stop-color="#1F68DC"/>
<stop offset="1" stop-color="#05DCED" stop-opacity="0"/>
</radialGradient>
<radialGradient id="paint6_radial_50_16351" cx="0" cy="0" r="1" gradientUnits="userSpaceOnUse" gradientTransform="translate(924.313 176.789) rotate(90) scale(525.544 908.298)">
<stop stop-color="#1F68DC"/>
<stop offset="1" stop-color="#05DCED" stop-opacity="0"/>
</radialGradient>
<radialGradient id="paint7_radial_50_16351" cx="0" cy="0" r="1" gradientUnits="userSpaceOnUse" gradientTransform="translate(927.935 179.201) rotate(90) scale(521.066 900.474)">
<stop stop-color="#1F68DC"/>
<stop offset="1" stop-color="#05DCED" stop-opacity="0"/>
</radialGradient>
<radialGradient id="paint8_radial_50_16351" cx="0" cy="0" r="1" gradientUnits="userSpaceOnUse" gradientTransform="translate(931.317 181.493) rotate(90) scale(516.654 892.41)">
<stop stop-color="#1F68DC"/>
<stop offset="1" stop-color="#05DCED" stop-opacity="0"/>
</radialGradient>
<radialGradient id="paint9_radial_50_16351" cx="0" cy="0" r="1" gradientUnits="userSpaceOnUse" gradientTransform="translate(934.591 182.003) rotate(90) scale(511.95 884.239)">
<stop stop-color="#1F68DC"/>
<stop offset="1" stop-color="#05DCED" stop-opacity="0"/>
</radialGradient>
<radialGradient id="paint10_radial_50_16351" cx="0" cy="0" r="1" gradientUnits="userSpaceOnUse" gradientTransform="translate(937.929 183.273) rotate(90) scale(507.262 876.617)">
<stop stop-color="#1F68DC"/>
<stop offset="1" stop-color="#05DCED" stop-opacity="0"/>
</radialGradient>
<radialGradient id="paint11_radial_50_16351" cx="0" cy="0" r="1" gradientUnits="userSpaceOnUse" gradientTransform="translate(941.989 184.687) rotate(90) scale(502.716 868.501)">
<stop stop-color="#1F68DC"/>
<stop offset="1" stop-color="#05DCED" stop-opacity="0"/>
</radialGradient>
<radialGradient id="paint12_radial_50_16351" cx="0" cy="0" r="1" gradientUnits="userSpaceOnUse" gradientTransform="translate(945.188 186.075) rotate(90) scale(498.145 860.619)">
<stop stop-color="#1F68DC"/>
<stop offset="1" stop-color="#05DCED" stop-opacity="0"/>
</radialGradient>
<radialGradient id="paint13_radial_50_16351" cx="0" cy="0" r="1" gradientUnits="userSpaceOnUse" gradientTransform="translate(948.677 187.963) rotate(90) scale(493.142 852.662)">
<stop stop-color="#1F68DC"/>
<stop offset="1" stop-color="#05DCED" stop-opacity="0"/>
</radialGradient>
<radialGradient id="paint14_radial_50_16351" cx="0" cy="0" r="1" gradientUnits="userSpaceOnUse" gradientTransform="translate(952.045 188.688) rotate(90) scale(489.212 844.706)">
<stop stop-color="#1F68DC"/>
<stop offset="1" stop-color="#05DCED" stop-opacity="0"/>
</radialGradient>
<radialGradient id="paint15_radial_50_16351" cx="0" cy="0" r="1" gradientUnits="userSpaceOnUse" gradientTransform="translate(955.602 190.348) rotate(90) scale(484.354 836.817)">
<stop stop-color="#1F68DC"/>
<stop offset="1" stop-color="#05DCED" stop-opacity="0"/>
</radialGradient>
<radialGradient id="paint16_radial_50_16351" cx="0" cy="0" r="1" gradientUnits="userSpaceOnUse" gradientTransform="translate(959.102 191.656) rotate(90) scale(479.704 828.871)">
<stop stop-color="#1F68DC"/>
<stop offset="1" stop-color="#05DCED" stop-opacity="0"/>
</radialGradient>
<radialGradient id="paint17_radial_50_16351" cx="0" cy="0" r="1" gradientUnits="userSpaceOnUse" gradientTransform="translate(962.551 193.165) rotate(90) scale(475.067 820.875)">
<stop stop-color="#1F68DC"/>
<stop offset="1" stop-color="#05DCED" stop-opacity="0"/>
</radialGradient>
<radialGradient id="paint18_radial_50_16351" cx="0" cy="0" r="1" gradientUnits="userSpaceOnUse" gradientTransform="translate(966.04 194.381) rotate(90) scale(470.51 812.918)">
<stop stop-color="#1F68DC"/>
<stop offset="1" stop-color="#05DCED" stop-opacity="0"/>
</radialGradient>
<radialGradient id="paint19_radial_50_16351" cx="0" cy="0" r="1" gradientUnits="userSpaceOnUse" gradientTransform="translate(969.472 195.769) rotate(90) scale(465.939 805.026)">
<stop stop-color="#1F68DC"/>
<stop offset="1" stop-color="#05DCED" stop-opacity="0"/>
</radialGradient>
<radialGradient id="paint20_radial_50_16351" cx="0" cy="0" r="1" gradientUnits="userSpaceOnUse" gradientTransform="translate(972.961 197.499) rotate(90) scale(460.779 797.069)">
<stop stop-color="#1F68DC"/>
<stop offset="1" stop-color="#05DCED" stop-opacity="0"/>
</radialGradient>
<radialGradient id="paint21_radial_50_16351" cx="0" cy="0" r="1" gradientUnits="userSpaceOnUse" gradientTransform="translate(976.444 198.665) rotate(90) scale(456.731 789.105)">
<stop stop-color="#1F68DC"/>
<stop offset="1" stop-color="#05DCED" stop-opacity="0"/>
</radialGradient>
<radialGradient id="paint22_radial_50_16351" cx="0" cy="0" r="1" gradientUnits="userSpaceOnUse" gradientTransform="translate(979.911 200.039) rotate(90) scale(452.146 781.127)">
<stop stop-color="#1F68DC"/>
<stop offset="1" stop-color="#05DCED" stop-opacity="0"/>
</radialGradient>
<radialGradient id="paint23_radial_50_16351" cx="0" cy="0" r="1" gradientUnits="userSpaceOnUse" gradientTransform="translate(983.701 201.35) rotate(90) scale(447.497 773.592)">
<stop stop-color="#1F68DC"/>
<stop offset="1" stop-color="#05DCED" stop-opacity="0"/>
</radialGradient>
<radialGradient id="paint24_radial_50_16351" cx="0" cy="0" r="1" gradientUnits="userSpaceOnUse" gradientTransform="translate(986.809 203.103) rotate(90) scale(442.546 765.255)">
<stop stop-color="#1F68DC"/>
<stop offset="1" stop-color="#05DCED" stop-opacity="0"/>
</radialGradient>
<radialGradient id="paint25_radial_50_16351" cx="0" cy="0" r="1" gradientUnits="userSpaceOnUse" gradientTransform="translate(990.325 204.193) rotate(90) scale(438.422 757.325)">
<stop stop-color="#1F68DC"/>
<stop offset="1" stop-color="#05DCED" stop-opacity="0"/>
</radialGradient>
<radialGradient id="paint26_radial_50_16351" cx="0" cy="0" r="1" gradientUnits="userSpaceOnUse" gradientTransform="translate(993.557 205.563) rotate(90) scale(433.833 749.598)">
<stop stop-color="#1F68DC"/>
<stop offset="1" stop-color="#05DCED" stop-opacity="0"/>
</radialGradient>
<radialGradient id="paint27_radial_50_16351" cx="0" cy="0" r="1" gradientUnits="userSpaceOnUse" gradientTransform="translate(997.475 207) rotate(90) scale(429.125 741.339)">
<stop stop-color="#1F68DC"/>
<stop offset="1" stop-color="#05DCED" stop-opacity="0"/>
</radialGradient>
<radialGradient id="paint28_radial_50_16351" cx="0" cy="0" r="1" gradientUnits="userSpaceOnUse" gradientTransform="translate(1000.71 208.834) rotate(90) scale(424.44 733.49)">
<stop stop-color="#1F68DC"/>
<stop offset="1" stop-color="#05DCED" stop-opacity="0"/>
</radialGradient>
<radialGradient id="paint29_radial_50_16351" cx="0" cy="0" r="1" gradientUnits="userSpaceOnUse" gradientTransform="translate(1004.05 209.732) rotate(90) scale(419.939 725.39)">
<stop stop-color="#1F68DC"/>
<stop offset="1" stop-color="#05DCED" stop-opacity="0"/>
</radialGradient>
<radialGradient id="paint30_radial_50_16351" cx="0" cy="0" r="1" gradientUnits="userSpaceOnUse" gradientTransform="translate(1007.69 210.755) rotate(90) scale(415.002 717.58)">
<stop stop-color="#1F68DC"/>
<stop offset="1" stop-color="#05DCED" stop-opacity="0"/>
</radialGradient>
<radialGradient id="paint31_radial_50_16351" cx="0" cy="0" r="1" gradientUnits="userSpaceOnUse" gradientTransform="translate(1011.3 212.417) rotate(90) scale(410.705 709.745)">
<stop stop-color="#1F68DC"/>
<stop offset="1" stop-color="#05DCED" stop-opacity="0"/>
</radialGradient>
<radialGradient id="paint32_radial_50_16351" cx="0" cy="0" r="1" gradientUnits="userSpaceOnUse" gradientTransform="translate(1014.59 213.805) rotate(90) scale(406.134 701.709)">
<stop stop-color="#1F68DC"/>
<stop offset="1" stop-color="#05DCED" stop-opacity="0"/>
</radialGradient>
<radialGradient id="paint33_radial_50_16351" cx="0" cy="0" r="1" gradientUnits="userSpaceOnUse" gradientTransform="translate(1018.03 215.219) rotate(90) scale(401.589 693.709)">
<stop stop-color="#1F68DC"/>
<stop offset="1" stop-color="#05DCED" stop-opacity="0"/>
</radialGradient>
<radialGradient id="paint34_radial_50_16351" cx="0" cy="0" r="1" gradientUnits="userSpaceOnUse" gradientTransform="translate(1021.56 216.701) rotate(90) scale(396.926 685.789)">
<stop stop-color="#1F68DC"/>
<stop offset="1" stop-color="#05DCED" stop-opacity="0"/>
</radialGradient>
<radialGradient id="paint35_radial_50_16351" cx="0" cy="0" r="1" gradientUnits="userSpaceOnUse" gradientTransform="translate(1025.05 218.096) rotate(90) scale(391.989 677.836)">
<stop stop-color="#1F68DC"/>
<stop offset="1" stop-color="#05DCED" stop-opacity="0"/>
</radialGradient>
<radialGradient id="paint36_radial_50_16351" cx="0" cy="0" r="1" gradientUnits="userSpaceOnUse" gradientTransform="translate(1028.59 219.386) rotate(90) scale(387.693 669.923)">
<stop stop-color="#1F68DC"/>
<stop offset="1" stop-color="#05DCED" stop-opacity="0"/>
</radialGradient>
<radialGradient id="paint37_radial_50_16351" cx="0" cy="0" r="1" gradientUnits="userSpaceOnUse" gradientTransform="translate(1031.91 220.772) rotate(90) scale(383.119 661.921)">
<stop stop-color="#1F68DC"/>
<stop offset="1" stop-color="#05DCED" stop-opacity="0"/>
</radialGradient>
<radialGradient id="paint38_radial_50_16351" cx="0" cy="0" r="1" gradientUnits="userSpaceOnUse" gradientTransform="translate(1035.43 222.188) rotate(90) scale(378.576 653.998)">
<stop stop-color="#1F68DC"/>
<stop offset="1" stop-color="#05DCED" stop-opacity="0"/>
</radialGradient>
<radialGradient id="paint39_radial_50_16351" cx="0" cy="0" r="1" gradientUnits="userSpaceOnUse" gradientTransform="translate(1038.94 223.484) rotate(90) scale(373.914 646.067)">
<stop stop-color="#1F68DC"/>
<stop offset="1" stop-color="#04E2EE"/>
</radialGradient>
<radialGradient id="paint40_radial_50_16351" cx="0" cy="0" r="1" gradientUnits="userSpaceOnUse" gradientTransform="translate(1042.41 224.942) rotate(90) scale(369.412 638.088)">
<stop stop-color="#1F68DC"/>
<stop offset="1" stop-color="#05DCED" stop-opacity="0"/>
</radialGradient>
</defs>
</svg>
