<svg width="1682" height="490" viewBox="0 0 1682 490" fill="none" xmlns="http://www.w3.org/2000/svg">
<g opacity="0.7">
<path d="M1.46118 618.252C1.46118 618.252 142.222 9.443 870.255 465.678C1598.29 921.914 2333.26 327.747 1626.78 1.2732" stroke="url(#paint0_radial_50_16437)" stroke-width="0.25" stroke-miterlimit="10"/>
<path opacity="0.98" d="M12.907 616.448C12.907 616.448 152.45 12.7322 874.76 465.254C1597.07 917.776 2325.71 328.808 1625.2 4.66844" stroke="url(#paint1_radial_50_16437)" stroke-width="0.25" stroke-miterlimit="10"/>
<path opacity="0.95" d="M24.353 614.751C24.353 614.751 162.678 16.1274 879.022 464.723C1595.37 913.319 2317.68 329.444 1623.01 8.48809" stroke="url(#paint2_radial_50_16437)" stroke-width="0.25" stroke-miterlimit="10"/>
<path opacity="0.93" d="M35.799 613.053C35.799 613.053 172.906 19.4165 883.162 464.511C1593.42 909.606 2309.76 330.399 1620.82 11.6712" stroke="url(#paint3_radial_50_16437)" stroke-width="0.25" stroke-miterlimit="10"/>
<path opacity="0.9" d="M47.2449 611.037C47.2449 611.037 183.257 22.4935 887.424 463.556C1591.59 904.619 2301.73 330.93 1618.75 14.8541" stroke="url(#paint4_radial_50_16437)" stroke-width="0.25" stroke-miterlimit="10"/>
<path opacity="0.88" d="M58.569 609.658C58.569 609.658 193.485 26.1009 891.564 463.45C1589.64 900.8 2293.81 331.566 1616.68 17.825" stroke="url(#paint5_radial_50_16437)" stroke-width="0.25" stroke-miterlimit="10"/>
<path opacity="0.85" d="M70.015 607.854C70.015 607.854 203.713 29.4961 895.826 462.495C1587.94 895.495 2285.9 331.885 1614.24 21.2203" stroke="url(#paint6_radial_50_16437)" stroke-width="0.25" stroke-miterlimit="10"/>
<path opacity="0.83" d="M81.4609 606.156C81.4609 606.156 213.941 32.7853 899.966 462.495C1585.99 892.205 2277.86 332.946 1613.02 25.146" stroke="url(#paint7_radial_50_16437)" stroke-width="0.25" stroke-miterlimit="10"/>
<path opacity="0.8" d="M92.9069 604.459C92.9069 604.459 224.17 36.1805 904.106 462.495C1584.04 888.81 2269.95 334.113 1610.34 28.9656" stroke="url(#paint8_radial_50_16437)" stroke-width="0.25" stroke-miterlimit="10"/>
<path opacity="0.78" d="M104.353 602.761C104.353 602.761 234.398 39.4696 908.003 461.646C1581.61 883.823 2261.54 334.325 1607.91 31.9365" stroke="url(#paint9_radial_50_16437)" stroke-width="0.25" stroke-miterlimit="10"/>
<path opacity="0.76" d="M115.312 601.064C115.312 601.064 244.383 42.8649 912.142 461.116C1579.9 879.367 2253.63 335.068 1606.2 35.3317" stroke="url(#paint10_radial_50_16437)" stroke-width="0.25" stroke-miterlimit="10"/>
<path opacity="0.73" d="M127.488 599.26C127.488 599.26 255.342 46.154 917.135 460.692C1578.93 875.229 2246.2 335.704 1604.13 38.727" stroke="url(#paint11_radial_50_16437)" stroke-width="0.25" stroke-miterlimit="10"/>
<path opacity="0.71" d="M138.569 597.562C138.569 597.562 265.204 49.5493 920.91 460.267C1576.61 870.985 2238.04 336.447 1601.94 42.1222" stroke="url(#paint12_radial_50_16437)" stroke-width="0.25" stroke-miterlimit="10"/>
<path opacity="0.68" d="M150.015 595.865C150.015 595.865 275.433 52.8384 925.171 459.843C1574.91 866.847 2230.01 337.084 1599.87 46.0479" stroke="url(#paint13_radial_50_16437)" stroke-width="0.25" stroke-miterlimit="10"/>
<path opacity="0.66" d="M161.339 594.167C161.339 594.167 285.783 56.2337 929.311 459.418C1572.84 862.603 2221.85 337.826 1597.8 48.7005" stroke="url(#paint14_radial_50_16437)" stroke-width="0.25" stroke-miterlimit="10"/>
<path opacity="0.63" d="M172.785 592.469C172.785 592.469 295.889 59.3106 933.451 458.888C1571.01 858.465 2214.18 338.463 1595.73 52.414" stroke="url(#paint15_radial_50_16437)" stroke-width="0.25" stroke-miterlimit="10"/>
<path opacity="0.61" d="M184.231 590.772C184.231 590.772 305.996 62.9181 937.713 458.463C1569.43 854.009 2206.14 339.206 1593.66 55.8092" stroke="url(#paint16_radial_50_16437)" stroke-width="0.25" stroke-miterlimit="10"/>
<path opacity="0.59" d="M195.677 588.968C195.677 588.968 316.468 66.2072 941.853 458.039C1567.24 849.871 2198.23 339.842 1591.47 59.3106" stroke="url(#paint17_radial_50_16437)" stroke-width="0.25" stroke-miterlimit="10"/>
<path opacity="0.56" d="M207.122 587.27C207.122 587.27 326.696 69.9207 946.115 457.615C1565.53 845.309 2190.19 340.903 1589.4 62.5998" stroke="url(#paint18_radial_50_16437)" stroke-width="0.25" stroke-miterlimit="10"/>
<path opacity="0.54" d="M218.447 585.573C218.447 585.573 336.924 72.8916 950.255 457.084C1563.59 841.277 2182.27 341.328 1587.33 65.995" stroke="url(#paint19_radial_50_16437)" stroke-width="0.25" stroke-miterlimit="10"/>
<path opacity="0.51" d="M229.893 583.875C229.893 583.875 347.152 76.2868 954.517 456.554C1561.88 836.82 2174.24 341.964 1585.26 69.9207" stroke="url(#paint20_radial_50_16437)" stroke-width="0.25" stroke-miterlimit="10"/>
<path opacity="0.49" d="M241.338 582.177C241.338 582.177 357.502 79.5759 958.657 456.235C1559.81 832.895 2166.32 342.707 1583.19 72.8915" stroke="url(#paint21_radial_50_16437)" stroke-width="0.25" stroke-miterlimit="10"/>
<path opacity="0.46" d="M252.784 580.374C252.784 580.374 367.731 82.9712 962.919 455.811C1558.11 828.651 2158.29 343.344 1581 76.2868" stroke="url(#paint22_radial_50_16437)" stroke-width="0.25" stroke-miterlimit="10"/>
<path opacity="0.44" d="M264.109 579.207C264.109 579.207 377.959 86.2603 967.667 455.28C1557.38 824.3 2150.98 344.086 1579.54 79.682" stroke="url(#paint23_radial_50_16437)" stroke-width="0.25" stroke-miterlimit="10"/>
<path opacity="0.41" d="M275.555 576.979C275.555 576.979 388.187 89.6556 971.199 454.856C1554.21 820.056 2142.34 344.723 1576.86 83.5017" stroke="url(#paint24_radial_50_16437)" stroke-width="0.25" stroke-miterlimit="10"/>
<path opacity="0.39" d="M287 575.281C287 575.281 398.415 92.9447 975.46 454.432C1552.51 815.919 2134.42 345.784 1574.79 86.4725" stroke="url(#paint25_radial_50_16437)" stroke-width="0.25" stroke-miterlimit="10"/>
<path opacity="0.37" d="M297.959 573.583C297.959 573.583 407.548 96.1277 979.113 454.007C1550.68 811.887 2126.51 345.784 1572.6 89.8678" stroke="url(#paint26_radial_50_16437)" stroke-width="0.25" stroke-miterlimit="10"/>
<path opacity="0.34" d="M310.136 571.78C310.136 571.78 419.724 99.6291 984.106 453.477C1548.49 807.324 2118.71 347.375 1570.77 93.3691" stroke="url(#paint27_radial_50_16437)" stroke-width="0.25" stroke-miterlimit="10"/>
<path opacity="0.32" d="M321.216 570.082C321.216 570.082 429.222 103.236 988.002 453.371C1546.78 803.505 2110.55 347.269 1568.46 97.0826" stroke="url(#paint28_radial_50_16437)" stroke-width="0.25" stroke-miterlimit="10"/>
<path opacity="0.29" d="M332.662 568.597C332.662 568.597 439.45 106.313 992.02 452.628C1544.59 798.942 2102.27 348.224 1566.14 100.16" stroke="url(#paint29_radial_50_16437)" stroke-width="0.25" stroke-miterlimit="10"/>
<path opacity="0.27" d="M344.108 566.687C344.108 566.687 449.679 109.709 996.404 451.885C1543.13 794.062 2094.6 348.861 1564.32 103.555" stroke="url(#paint30_radial_50_16437)" stroke-width="0.25" stroke-miterlimit="10"/>
<path opacity="0.24" d="M355.554 564.989C355.554 564.989 459.907 112.998 1000.91 451.673C1541.91 790.348 2086.81 349.604 1562.37 106.95" stroke="url(#paint31_radial_50_16437)" stroke-width="0.25" stroke-miterlimit="10"/>
<path opacity="0.22" d="M366.878 563.185C366.878 563.185 470.135 116.393 1004.81 451.249C1539.48 786.104 2078.65 350.346 1560.05 110.345" stroke="url(#paint32_radial_50_16437)" stroke-width="0.25" stroke-miterlimit="10"/>
<path opacity="0.2" d="M378.324 561.488C378.324 561.488 480.607 119.682 1008.95 450.824C1537.28 781.966 2070.62 350.983 1557.98 113.741" stroke="url(#paint33_radial_50_16437)" stroke-width="0.25" stroke-miterlimit="10"/>
<path opacity="0.17" d="M389.77 559.79C389.77 559.79 490.714 123.077 1013.21 450.4C1535.7 777.722 2062.7 351.726 1555.91 117.242" stroke="url(#paint34_radial_50_16437)" stroke-width="0.25" stroke-miterlimit="10"/>
<path opacity="0.15" d="M401.216 557.986C401.216 557.986 500.942 126.26 1017.35 449.763C1533.75 773.266 2054.79 352.256 1553.84 120.849" stroke="url(#paint35_radial_50_16437)" stroke-width="0.25" stroke-miterlimit="10"/>
<path opacity="0.12" d="M412.662 556.395C412.662 556.395 511.17 129.762 1021.49 449.445C1531.81 769.128 2046.75 353.105 1552.14 124.032" stroke="url(#paint36_radial_50_16437)" stroke-width="0.25" stroke-miterlimit="10"/>
<path opacity="0.1" d="M423.986 554.591C423.986 554.591 521.398 133.051 1025.75 449.02C1530.1 764.99 2038.84 353.529 1549.34 127.428" stroke="url(#paint37_radial_50_16437)" stroke-width="0.25" stroke-miterlimit="10"/>
<path opacity="0.07" d="M435.432 552.894C435.432 552.894 531.748 136.446 1030.01 448.596C1528.27 760.746 2030.8 354.484 1547.51 130.823" stroke="url(#paint38_radial_50_16437)" stroke-width="0.25" stroke-miterlimit="10"/>
<path opacity="0.05" d="M446.878 551.196C446.878 551.196 541.977 139.735 1034.15 448.066C1526.33 756.396 2022.88 355.121 1545.56 134.218" stroke="url(#paint39_radial_50_16437)" stroke-width="0.25" stroke-miterlimit="10"/>
<path opacity="0.02" d="M458.324 549.498C458.324 549.498 552.205 143.131 1038.41 447.641C1524.62 752.152 2014.85 356.394 1543.37 137.613" stroke="url(#paint40_radial_50_16437)" stroke-width="0.25" stroke-miterlimit="10"/>
</g>
<defs>
<radialGradient id="paint0_radial_50_16437" cx="0" cy="0" r="1" gradientUnits="userSpaceOnUse" gradientTransform="translate(957.286 316.481) rotate(90) scale(315.207 955.825)">
<stop stop-color="#4ACE93"/>
<stop offset="1" stop-color="#3ECF8E" stop-opacity="0"/>
</radialGradient>
<radialGradient id="paint1_radial_50_16437" cx="0" cy="0" r="1" gradientUnits="userSpaceOnUse" gradientTransform="translate(961.016 317.318) rotate(90) scale(312.649 948.108)">
<stop stop-color="#4ACE93"/>
<stop offset="1" stop-color="#3ECF8E" stop-opacity="0"/>
</radialGradient>
<radialGradient id="paint2_radial_50_16437" cx="0" cy="0" r="1" gradientUnits="userSpaceOnUse" gradientTransform="translate(964.482 318.25) rotate(90) scale(309.762 940.129)">
<stop stop-color="#4ACE93"/>
<stop offset="1" stop-color="#3ECF8E" stop-opacity="0"/>
</radialGradient>
<radialGradient id="paint3_radial_50_16437" cx="0" cy="0" r="1" gradientUnits="userSpaceOnUse" gradientTransform="translate(967.954 319.105) rotate(90) scale(307.434 932.155)">
<stop stop-color="#4ACE93"/>
<stop offset="1" stop-color="#3ECF8E" stop-opacity="0"/>
</radialGradient>
<radialGradient id="paint4_radial_50_16437" cx="0" cy="0" r="1" gradientUnits="userSpaceOnUse" gradientTransform="translate(971.432 319.506) rotate(90) scale(304.651 924.187)">
<stop stop-color="#4ACE93"/>
<stop offset="1" stop-color="#3ECF8E" stop-opacity="0"/>
</radialGradient>
<radialGradient id="paint5_radial_50_16437" cx="0" cy="0" r="1" gradientUnits="userSpaceOnUse" gradientTransform="translate(974.864 320.228) rotate(90) scale(302.403 916.295)">
<stop stop-color="#4ACE93"/>
<stop offset="1" stop-color="#3ECF8E" stop-opacity="0"/>
</radialGradient>
<radialGradient id="paint6_radial_50_16437" cx="0" cy="0" r="1" gradientUnits="userSpaceOnUse" gradientTransform="translate(978.313 320.653) rotate(90) scale(299.432 908.298)">
<stop stop-color="#4ACE93"/>
<stop offset="1" stop-color="#3ECF8E" stop-opacity="0"/>
</radialGradient>
<radialGradient id="paint7_radial_50_16437" cx="0" cy="0" r="1" gradientUnits="userSpaceOnUse" gradientTransform="translate(981.935 322.027) rotate(90) scale(296.881 900.474)">
<stop stop-color="#4ACE93"/>
<stop offset="1" stop-color="#3ECF8E" stop-opacity="0"/>
</radialGradient>
<radialGradient id="paint8_radial_50_16437" cx="0" cy="0" r="1" gradientUnits="userSpaceOnUse" gradientTransform="translate(985.317 323.333) rotate(90) scale(294.367 892.41)">
<stop stop-color="#4ACE93"/>
<stop offset="1" stop-color="#3ECF8E" stop-opacity="0"/>
</radialGradient>
<radialGradient id="paint9_radial_50_16437" cx="0" cy="0" r="1" gradientUnits="userSpaceOnUse" gradientTransform="translate(988.591 323.624) rotate(90) scale(291.687 884.239)">
<stop stop-color="#4ACE93"/>
<stop offset="1" stop-color="#3ECF8E" stop-opacity="0"/>
</radialGradient>
<radialGradient id="paint10_radial_50_16437" cx="0" cy="0" r="1" gradientUnits="userSpaceOnUse" gradientTransform="translate(991.929 324.348) rotate(90) scale(289.016 876.617)">
<stop stop-color="#4ACE93"/>
<stop offset="1" stop-color="#3ECF8E" stop-opacity="0"/>
</radialGradient>
<radialGradient id="paint11_radial_50_16437" cx="0" cy="0" r="1" gradientUnits="userSpaceOnUse" gradientTransform="translate(995.989 325.153) rotate(90) scale(286.426 868.501)">
<stop stop-color="#4ACE93"/>
<stop offset="1" stop-color="#3ECF8E" stop-opacity="0"/>
</radialGradient>
<radialGradient id="paint12_radial_50_16437" cx="0" cy="0" r="1" gradientUnits="userSpaceOnUse" gradientTransform="translate(999.188 325.944) rotate(90) scale(283.822 860.619)">
<stop stop-color="#4ACE93"/>
<stop offset="1" stop-color="#3ECF8E" stop-opacity="0"/>
</radialGradient>
<radialGradient id="paint13_radial_50_16437" cx="0" cy="0" r="1" gradientUnits="userSpaceOnUse" gradientTransform="translate(1002.68 327.019) rotate(90) scale(280.971 852.662)">
<stop stop-color="#4ACE93"/>
<stop offset="1" stop-color="#3ECF8E" stop-opacity="0"/>
</radialGradient>
<radialGradient id="paint14_radial_50_16437" cx="0" cy="0" r="1" gradientUnits="userSpaceOnUse" gradientTransform="translate(1006.04 327.432) rotate(90) scale(278.732 844.706)">
<stop stop-color="#4ACE93"/>
<stop offset="1" stop-color="#3ECF8E" stop-opacity="0"/>
</radialGradient>
<radialGradient id="paint15_radial_50_16437" cx="0" cy="0" r="1" gradientUnits="userSpaceOnUse" gradientTransform="translate(1009.6 328.378) rotate(90) scale(275.964 836.817)">
<stop stop-color="#4ACE93"/>
<stop offset="1" stop-color="#3ECF8E" stop-opacity="0"/>
</radialGradient>
<radialGradient id="paint16_radial_50_16437" cx="0" cy="0" r="1" gradientUnits="userSpaceOnUse" gradientTransform="translate(1013.1 329.124) rotate(90) scale(273.314 828.871)">
<stop stop-color="#4ACE93"/>
<stop offset="1" stop-color="#3ECF8E" stop-opacity="0"/>
</radialGradient>
<radialGradient id="paint17_radial_50_16437" cx="0" cy="0" r="1" gradientUnits="userSpaceOnUse" gradientTransform="translate(1016.55 329.983) rotate(90) scale(270.673 820.875)">
<stop stop-color="#4ACE93"/>
<stop offset="1" stop-color="#3ECF8E" stop-opacity="0"/>
</radialGradient>
<radialGradient id="paint18_radial_50_16437" cx="0" cy="0" r="1" gradientUnits="userSpaceOnUse" gradientTransform="translate(1020.04 330.676) rotate(90) scale(268.076 812.918)">
<stop stop-color="#4ACE93"/>
<stop offset="1" stop-color="#3ECF8E" stop-opacity="0"/>
</radialGradient>
<radialGradient id="paint19_radial_50_16437" cx="0" cy="0" r="1" gradientUnits="userSpaceOnUse" gradientTransform="translate(1023.47 331.467) rotate(90) scale(265.472 805.026)">
<stop stop-color="#4ACE93"/>
<stop offset="1" stop-color="#3ECF8E" stop-opacity="0"/>
</radialGradient>
<radialGradient id="paint20_radial_50_16437" cx="0" cy="0" r="1" gradientUnits="userSpaceOnUse" gradientTransform="translate(1026.96 332.453) rotate(90) scale(262.532 797.069)">
<stop stop-color="#4ACE93"/>
<stop offset="1" stop-color="#3ECF8E" stop-opacity="0"/>
</radialGradient>
<radialGradient id="paint21_radial_50_16437" cx="0" cy="0" r="1" gradientUnits="userSpaceOnUse" gradientTransform="translate(1030.44 333.117) rotate(90) scale(260.225 789.105)">
<stop stop-color="#4ACE93"/>
<stop offset="1" stop-color="#3ECF8E" stop-opacity="0"/>
</radialGradient>
<radialGradient id="paint22_radial_50_16437" cx="0" cy="0" r="1" gradientUnits="userSpaceOnUse" gradientTransform="translate(1033.91 333.9) rotate(90) scale(257.613 781.127)">
<stop stop-color="#4ACE93"/>
<stop offset="1" stop-color="#3ECF8E" stop-opacity="0"/>
</radialGradient>
<radialGradient id="paint23_radial_50_16437" cx="0" cy="0" r="1" gradientUnits="userSpaceOnUse" gradientTransform="translate(1037.7 334.647) rotate(90) scale(254.965 773.592)">
<stop stop-color="#4ACE93"/>
<stop offset="1" stop-color="#3ECF8E" stop-opacity="0"/>
</radialGradient>
<radialGradient id="paint24_radial_50_16437" cx="0" cy="0" r="1" gradientUnits="userSpaceOnUse" gradientTransform="translate(1040.81 335.645) rotate(90) scale(252.144 765.255)">
<stop stop-color="#4ACE93"/>
<stop offset="1" stop-color="#3ECF8E" stop-opacity="0"/>
</radialGradient>
<radialGradient id="paint25_radial_50_16437" cx="0" cy="0" r="1" gradientUnits="userSpaceOnUse" gradientTransform="translate(1044.33 336.267) rotate(90) scale(249.794 757.325)">
<stop stop-color="#4ACE93"/>
<stop offset="1" stop-color="#3ECF8E" stop-opacity="0"/>
</radialGradient>
<radialGradient id="paint26_radial_50_16437" cx="0" cy="0" r="1" gradientUnits="userSpaceOnUse" gradientTransform="translate(1047.56 337.047) rotate(90) scale(247.18 749.598)">
<stop stop-color="#4ACE93"/>
<stop offset="1" stop-color="#3ECF8E" stop-opacity="0"/>
</radialGradient>
<radialGradient id="paint27_radial_50_16437" cx="0" cy="0" r="1" gradientUnits="userSpaceOnUse" gradientTransform="translate(1051.48 337.866) rotate(90) scale(244.497 741.339)">
<stop stop-color="#4ACE93"/>
<stop offset="1" stop-color="#3ECF8E" stop-opacity="0"/>
</radialGradient>
<radialGradient id="paint28_radial_50_16437" cx="0" cy="0" r="1" gradientUnits="userSpaceOnUse" gradientTransform="translate(1054.71 338.911) rotate(90) scale(241.828 733.49)">
<stop stop-color="#4ACE93"/>
<stop offset="1" stop-color="#3ECF8E" stop-opacity="0"/>
</radialGradient>
<radialGradient id="paint29_radial_50_16437" cx="0" cy="0" r="1" gradientUnits="userSpaceOnUse" gradientTransform="translate(1058.05 339.423) rotate(90) scale(239.263 725.39)">
<stop stop-color="#4ACE93"/>
<stop offset="1" stop-color="#3ECF8E" stop-opacity="0"/>
</radialGradient>
<radialGradient id="paint30_radial_50_16437" cx="0" cy="0" r="1" gradientUnits="userSpaceOnUse" gradientTransform="translate(1061.69 340.005) rotate(90) scale(236.45 717.58)">
<stop stop-color="#4ACE93"/>
<stop offset="1" stop-color="#3ECF8E" stop-opacity="0"/>
</radialGradient>
<radialGradient id="paint31_radial_50_16437" cx="0" cy="0" r="1" gradientUnits="userSpaceOnUse" gradientTransform="translate(1065.3 340.952) rotate(90) scale(234.002 709.745)">
<stop stop-color="#4ACE93"/>
<stop offset="1" stop-color="#3ECF8E" stop-opacity="0"/>
</radialGradient>
<radialGradient id="paint32_radial_50_16437" cx="0" cy="0" r="1" gradientUnits="userSpaceOnUse" gradientTransform="translate(1068.59 341.743) rotate(90) scale(231.398 701.709)">
<stop stop-color="#4ACE93"/>
<stop offset="1" stop-color="#3ECF8E" stop-opacity="0"/>
</radialGradient>
<radialGradient id="paint33_radial_50_16437" cx="0" cy="0" r="1" gradientUnits="userSpaceOnUse" gradientTransform="translate(1072.03 342.549) rotate(90) scale(228.808 693.709)">
<stop stop-color="#4ACE93"/>
<stop offset="1" stop-color="#3ECF8E" stop-opacity="0"/>
</radialGradient>
<radialGradient id="paint34_radial_50_16437" cx="0" cy="0" r="1" gradientUnits="userSpaceOnUse" gradientTransform="translate(1075.56 343.393) rotate(90) scale(226.152 685.789)">
<stop stop-color="#4ACE93"/>
<stop offset="1" stop-color="#3ECF8E" stop-opacity="0"/>
</radialGradient>
<radialGradient id="paint35_radial_50_16437" cx="0" cy="0" r="1" gradientUnits="userSpaceOnUse" gradientTransform="translate(1079.05 344.188) rotate(90) scale(223.339 677.836)">
<stop stop-color="#4ACE93"/>
<stop offset="1" stop-color="#3ECF8E" stop-opacity="0"/>
</radialGradient>
<radialGradient id="paint36_radial_50_16437" cx="0" cy="0" r="1" gradientUnits="userSpaceOnUse" gradientTransform="translate(1082.58 344.923) rotate(90) scale(220.891 669.923)">
<stop stop-color="#4ACE93"/>
<stop offset="1" stop-color="#3ECF8E" stop-opacity="0"/>
</radialGradient>
<radialGradient id="paint37_radial_50_16437" cx="0" cy="0" r="1" gradientUnits="userSpaceOnUse" gradientTransform="translate(1085.91 345.713) rotate(90) scale(218.285 661.921)">
<stop stop-color="#4ACE93"/>
<stop offset="1" stop-color="#3ECF8E" stop-opacity="0"/>
</radialGradient>
<radialGradient id="paint38_radial_50_16437" cx="0" cy="0" r="1" gradientUnits="userSpaceOnUse" gradientTransform="translate(1089.43 346.519) rotate(90) scale(215.696 653.998)">
<stop stop-color="#4ACE93"/>
<stop offset="1" stop-color="#3ECF8E" stop-opacity="0"/>
</radialGradient>
<radialGradient id="paint39_radial_50_16437" cx="0" cy="0" r="1" gradientUnits="userSpaceOnUse" gradientTransform="translate(1092.94 347.258) rotate(90) scale(213.04 646.067)">
<stop stop-color="#4ACE93"/>
<stop offset="1" stop-color="#3ECF8E" stop-opacity="0"/>
</radialGradient>
<radialGradient id="paint40_radial_50_16437" cx="0" cy="0" r="1" gradientUnits="userSpaceOnUse" gradientTransform="translate(1096.41 348.089) rotate(90) scale(210.475 638.088)">
<stop stop-color="#4ACE93"/>
<stop offset="1" stop-color="#3ECF8E" stop-opacity="0"/>
</radialGradient>
</defs>
</svg>
