<svg width="178" height="127" viewBox="0 0 178 127" fill="none" xmlns="http://www.w3.org/2000/svg">
<path d="M85.6202 68.5697C77.6756 63.824 69.9491 59.2088 62.042 54.4856C63.8852 53.8218 64.1766 52.5078 64.1701 50.8655C64.1277 40.1036 64.1371 29.3418 64.1624 18.5799C64.1659 17.0262 63.9422 15.6994 61.962 15.0983C65.574 12.9417 68.9111 10.9493 72.5519 8.77545C72.5519 10.054 72.5519 10.9537 72.5519 11.8533C72.5607 24.7307 72.5607 37.625 72.5607 50.4933C72.5471 52.4577 73.0463 53.4809 74.748 54.4659C76.1227 55.2618 76.329 55.3353 77.3806 55.9464C77.3806 55.0628 77.3864 54.5245 77.3806 53.8997C77.3806 38.5224 77.4098 23.3628 77.3806 7.69761C77.3771 6.39559 77.6633 5.60128 78.8195 4.98148C81.0613 3.78013 83.2162 2.40494 85.6202 0.974731V68.5697Z" fill="#33CC99"/>
<path d="M17.9981 96.7296C17.9981 98.3306 17.864 99.6265 17.5957 100.618C17.2346 101.888 16.5898 102.993 15.6613 103.933C14.0003 105.627 11.813 106.474 9.09961 106.474C7.77903 106.474 6.56164 106.283 5.4474 105.901C4.18872 105.467 3.15702 104.821 2.35229 103.964C1.36185 102.921 0.70156 101.806 0.371414 100.618C0.226975 100.081 0.123805 99.4771 0.0619023 98.8054C0.0206341 98.2685 0 97.5766 0 96.7296V82.5397H5.98905V96.7296C5.98905 97.3496 6.02 97.881 6.0819 98.325C6.16444 98.8934 6.30372 99.3738 6.49974 99.7662C6.97434 100.726 7.82029 101.207 9.03772 101.207C10.2964 101.207 11.1424 100.737 11.5757 99.7969C11.7511 99.415 11.8749 98.9402 11.9471 98.3718C11.9884 97.9585 12.0091 97.4111 12.0091 96.7296V82.5397H17.9981V96.7296Z" fill="#20B486"/>
<path d="M21.6813 106.024V101.362C22.455 100.855 23.0999 100.427 23.6157 100.076C24.2967 99.6111 24.9105 99.1671 25.4573 98.7433C26.7573 97.742 27.887 96.7093 28.8465 95.6453C29.2385 95.2221 29.5996 94.7983 29.9297 94.3752C30.3321 93.8585 30.6829 93.3579 30.9821 92.8726C31.7146 91.664 32.0808 90.5902 32.0808 89.6504C32.0808 88.1318 31.3432 87.3728 29.8678 87.3728C28.898 87.3728 28.1913 87.7708 27.7477 88.566C27.4176 89.1546 27.2267 89.9911 27.1751 91.0754H21.4646C21.4956 89.9394 21.5987 89.0045 21.7741 88.2714C21.9805 87.3421 22.3416 86.4798 22.8574 85.6845C23.6209 84.5073 24.6681 83.6031 25.9989 82.9733C27.237 82.3952 28.5988 82.1061 30.0845 82.1061C31.694 82.1061 33.1332 82.4364 34.4022 83.0976C35.795 83.8203 36.8164 84.8634 37.4664 86.2263C37.8687 87.1354 38.0699 88.034 38.0699 88.9221C38.0699 90.1307 37.8274 91.3282 37.3426 92.5159C36.9195 93.5695 36.3005 94.6336 35.4855 95.7074C34.8149 96.5955 33.9792 97.5304 32.9784 98.5114C32.5761 98.9038 32.1221 99.327 31.6166 99.7815C31.2658 100.112 30.817 100.51 30.2702 100.974H38.2246V106.024H21.6813Z" fill="#20B486"/>
<path d="M59.7203 96.7296C59.7203 98.3306 59.5861 99.6265 59.3178 100.618C58.9568 101.888 58.3119 102.993 57.3834 103.933C55.7224 105.627 53.5351 106.474 50.8218 106.474C49.5012 106.474 48.2838 106.283 47.1695 105.901C45.9108 105.467 44.8791 104.821 44.0745 103.964C43.084 102.921 42.4237 101.806 42.0935 100.618C41.9491 100.081 41.846 99.4771 41.7841 98.8054C41.7428 98.2685 41.7221 97.5766 41.7221 96.7296V82.5397H47.7112V96.7296C47.7112 97.3496 47.7421 97.881 47.804 98.325C47.8866 98.8934 48.0259 99.3738 48.2219 99.7662C48.6965 100.726 49.5425 101.207 50.7599 101.207C52.0186 101.207 52.8645 100.737 53.2978 99.7969C53.4733 99.415 53.597 98.9402 53.6693 98.3718C53.7106 97.9585 53.7312 97.4111 53.7312 96.7296V82.5397H59.7203V96.7296Z" fill="#20B486"/>
<path d="M96.9543 97.2407C96.2733 99.9986 94.8342 102.229 92.6367 103.933C90.4601 105.627 87.9476 106.474 85.0999 106.474C81.6751 106.474 78.7605 105.297 76.3567 102.942C73.9425 100.577 72.7354 97.6799 72.7354 94.2509C72.7354 90.8325 73.932 87.946 76.3254 85.5916C78.7089 83.268 81.6131 82.1061 85.0386 82.1061C89.4955 82.1061 92.9357 83.9445 95.3603 87.6207C96.2064 88.8914 96.7375 90.1719 96.9543 91.4629H90.6713C89.6294 88.7364 87.7413 87.3728 85.0072 87.3728C83.1603 87.3728 81.6389 88.0598 80.4422 89.4332C79.2971 90.755 78.7242 92.3511 78.7242 94.2202C78.7242 96.1103 79.2971 97.7267 80.4422 99.0686C81.6493 100.494 83.1812 101.207 85.0386 101.207C87.5971 101.207 89.4746 99.8848 90.6713 97.2407H96.9543Z" fill="#20B486"/>
<path d="M113.73 106.024V96.6367H106.054V106.024H100.065V82.5397H106.054V91.3701H113.73V82.5397H119.719V106.024H113.73Z" fill="#20B486"/>
<path d="M139.079 106.024L137.934 102.632H129.794L128.556 106.024H122.117L131.527 82.5397H136.247L145.579 106.024H139.079ZM133.941 89.8515H133.848L131.434 97.8761H136.355L133.941 89.8515Z" fill="#20B486"/>
<path d="M147.978 106.024V82.5397H153.967V106.024H147.978Z" fill="#20B486"/>
<path d="M172.8 106.024L163.871 91.7416L163.793 91.7723L163.963 106.024H158.222V82.5397H163.391L172.46 97.3029L172.522 97.2407L172.259 82.5397H178V106.024H172.8Z" fill="#20B486"/>
<path d="M42.7286 120.612C42.7286 121.125 42.6925 121.61 42.6204 122.069C42.5302 122.606 42.3948 123.07 42.2145 123.463C41.4206 125.17 40.0405 126.024 38.074 126.024C36.1075 126.024 34.7273 125.17 33.9335 123.463C33.753 123.07 33.6208 122.606 33.5366 122.069C33.4584 121.61 33.4193 121.125 33.4193 120.612V112.06H34.7905V120.612C34.7905 121.058 34.8205 121.481 34.8806 121.879C34.9588 122.385 35.0821 122.79 35.2505 123.091C35.8639 124.213 36.805 124.775 38.074 124.775C39.3428 124.775 40.284 124.213 40.8974 123.091C41.0658 122.79 41.1891 122.385 41.2672 121.879C41.3334 121.481 41.3665 121.058 41.3665 120.612V112.06H42.7286V120.612Z" fill="white"/>
<path d="M52.9399 125.78V120.204C52.9399 119.662 52.8678 119.16 52.7234 118.702C52.5611 118.165 52.3115 117.737 51.9747 117.417C51.3613 116.838 50.6307 116.548 49.7827 116.548C48.9287 116.548 48.195 116.838 47.5817 117.417C47.2509 117.731 47.0043 118.147 46.842 118.666C46.7036 119.112 46.6345 119.592 46.6345 120.105V125.78H45.3445V115.644H46.6345V116.937H46.6706C47.3381 115.9 48.3755 115.381 49.7827 115.381C51.1959 115.381 52.2995 115.833 53.0932 116.738C53.851 117.607 54.2299 118.762 54.2299 120.204V125.78H52.9399Z" fill="white"/>
<path d="M56.6204 114.403V112.06H57.9104V114.403H56.6204ZM56.6204 125.78V115.644H57.9104V125.78H56.6204Z" fill="white"/>
<path d="M70.3226 122.793C69.2343 124.947 67.5595 126.024 65.2983 126.024C63.7948 126.024 62.5169 125.517 61.4645 124.503C60.4001 123.478 59.8678 122.217 59.8678 120.72C59.8678 119.236 60.4031 117.972 61.4735 116.928C62.538 115.897 63.8129 115.381 65.2983 115.381C66.4108 115.381 67.4181 115.674 68.3202 116.259C69.2463 116.862 69.9142 117.677 70.3226 118.702H68.8975C68.1458 117.266 66.9581 116.548 65.3343 116.548C64.1737 116.548 63.1904 116.946 62.3846 117.743C61.5667 118.539 61.1578 119.52 61.1578 120.684C61.1578 121.86 61.5607 122.85 62.3666 123.653C63.1724 124.455 64.1616 124.857 65.3343 124.857C67.0002 124.857 68.1879 124.169 68.8975 122.793H70.3226Z" fill="white"/>
<path d="M82.4194 120.702C82.4194 122.157 81.8995 123.405 80.8589 124.449C79.8184 125.499 78.5736 126.024 77.124 126.024C75.6987 126.024 74.4658 125.505 73.426 124.467C72.3792 123.429 71.8565 122.198 71.8565 120.775C71.8565 119.302 72.3673 118.038 73.3898 116.983C74.4178 115.914 75.6632 115.381 77.124 115.381C78.5618 115.381 79.8031 115.906 80.8499 116.955C81.896 118.006 82.4194 119.254 82.4194 120.702ZM81.1293 120.648C81.1293 119.537 80.7418 118.579 79.9654 117.77C79.1842 116.955 78.2426 116.548 77.1421 116.548C76.0117 116.548 75.0582 116.971 74.2825 117.815C73.525 118.636 73.1458 119.616 73.1458 120.757C73.1458 121.867 73.534 122.826 74.3097 123.635C75.0917 124.449 76.0361 124.857 77.1421 124.857C78.2851 124.857 79.2413 124.44 80.0107 123.607C80.7565 122.793 81.1293 121.807 81.1293 120.648Z" fill="white"/>
<path d="M88.5624 116.756C86.6381 116.914 85.6756 117.945 85.6756 119.852V125.78H84.3863V115.644H85.6756V117.109H85.7118C85.9767 116.5 86.3586 116.06 86.8576 115.788C87.2667 115.571 87.8347 115.435 88.5624 115.381V116.756Z" fill="white"/>
<path d="M97.8805 125.78V120.204C97.8805 119.662 97.8087 119.16 97.6644 118.702C97.502 118.165 97.2525 117.737 96.9159 117.417C96.3019 116.838 95.5715 116.548 94.7233 116.548C93.8696 116.548 93.1357 116.838 92.5224 117.417C92.192 117.731 91.9453 118.147 91.7829 118.666C91.6442 119.112 91.5752 119.592 91.5752 120.105V125.78H90.2852V115.644H91.5752V116.937H91.6114C92.2791 115.9 93.3162 115.381 94.7233 115.381C96.1367 115.381 97.2407 115.833 98.0345 116.738C98.7921 117.607 99.1705 118.762 99.1705 120.204V125.78H97.8805Z" fill="white"/>
<path d="M116.175 120.612C116.175 121.125 116.138 121.61 116.067 122.069C115.976 122.606 115.841 123.07 115.66 123.463C114.866 125.17 113.486 126.024 111.52 126.024C109.554 126.024 108.174 125.17 107.38 123.463C107.199 123.07 107.067 122.606 106.983 122.069C106.905 121.61 106.866 121.125 106.866 120.612V112.06H108.236V120.612C108.236 121.058 108.266 121.481 108.327 121.879C108.405 122.385 108.528 122.79 108.696 123.091C109.31 124.213 110.251 124.775 111.52 124.775C112.789 124.775 113.73 124.213 114.344 123.091C114.512 122.79 114.635 122.385 114.713 121.879C114.779 121.481 114.813 121.058 114.813 120.612V112.06H116.175V120.612Z" fill="white"/>
<path d="M118.791 125.78V112.06H120.08V125.78H118.791Z" fill="white"/>
<path d="M124.961 116.811V125.78H123.671V116.811H121.542V115.644H123.671V112.06H124.961V115.644H127.378V116.811H124.961Z" fill="white"/>
<path d="M132.926 116.756C131.001 116.914 130.04 117.945 130.04 119.852V125.78H128.75V115.644H130.04V117.109H130.075C130.34 116.5 130.722 116.06 131.221 115.788C131.63 115.571 132.198 115.435 132.926 115.381V116.756Z" fill="white"/>
<path d="M143.282 125.78V123.996H143.245C142.355 125.348 141.044 126.024 139.313 126.024C137.791 126.024 136.507 125.514 135.46 124.494C134.408 123.475 133.882 122.205 133.882 120.684C133.882 119.176 134.414 117.912 135.479 116.892C136.531 115.884 137.809 115.381 139.313 115.381C141.074 115.381 142.385 116.06 143.245 117.417H143.282V115.644H144.581V125.78H143.282ZM143.363 120.72C143.363 119.58 142.975 118.603 142.199 117.788C141.412 116.962 140.449 116.548 139.313 116.548C138.116 116.548 137.127 116.946 136.345 117.743C135.563 118.539 135.172 119.537 135.172 120.738C135.172 121.921 135.566 122.904 136.354 123.689C137.142 124.467 138.128 124.857 139.313 124.857C140.449 124.857 141.412 124.449 142.199 123.635C142.975 122.832 143.363 121.86 143.363 120.72Z" fill="white"/>
<path fill-rule="evenodd" clip-rule="evenodd" d="M110.694 57.6302C104.596 61.2725 98.554 64.8816 92.3797 68.5697V0.974731C93.0957 1.40066 93.7896 1.82172 94.4702 2.23475C96.0751 3.20861 97.6064 4.1379 99.1806 4.98148C100.337 5.60128 100.623 6.39559 100.619 7.69761C100.6 18.1437 100.606 28.365 100.613 38.576C100.616 43.6775 100.619 48.7765 100.619 53.8997C100.616 54.2975 100.617 54.6602 100.618 55.0991C100.619 55.3498 100.619 55.6253 100.619 55.9464C101.118 55.6564 101.427 55.4875 101.76 55.305C102.13 55.1029 102.53 54.8841 103.252 54.4659C104.954 53.4809 105.453 52.4577 105.439 50.4933V50.4568C105.439 37.6007 105.439 24.7185 105.448 11.8533V8.77545C106.965 9.68121 108.429 10.5555 109.883 11.4232C111.917 12.6381 113.931 13.8402 116.038 15.0983C114.058 15.6994 113.834 17.0262 113.838 18.5799C113.863 29.3418 113.872 40.1036 113.83 50.8655C113.823 52.5078 114.115 53.8218 115.958 54.4856L110.694 57.6302ZM97.4186 7.68024L96.4936 5.73759L95.5689 7.68024L93.5007 7.99164L94.9972 9.50371L94.6439 11.6387L96.4936 10.6306L98.3436 11.6387L97.9904 9.50371L99.4869 7.99164L97.4186 7.68024Z" fill="url(#paint0_linear_1_2859)"/>
<defs>
<linearGradient id="paint0_linear_1_2859" x1="92.3797" y1="34.772" x2="116.038" y2="34.772" gradientUnits="userSpaceOnUse">
<stop stop-color="#07806D"/>
<stop offset="1" stop-color="#035663"/>
</linearGradient>
</defs>
</svg>
