<svg width="151" height="32" viewBox="0 0 151 32" fill="none" xmlns="http://www.w3.org/2000/svg">
<g clip-path="url(#clip0_50_19179)">
<path d="M32.4511 6.42627V20.192C32.4495 20.9775 32.2411 21.7489 31.8467 22.4297C31.4523 23.1105 30.8855 23.6768 30.2028 24.0726L18.4808 31.412C17.7954 31.8061 17.0175 32.0136 16.2256 32.0136C15.4336 32.0136 14.6557 31.8061 13.9703 31.412L2.24832 24.0726C1.56552 23.6768 0.998803 23.1105 0.604394 22.4297C0.209985 21.7489 0.001618 20.9775 0 20.192V6.42627H6.46654V13.7657C6.46654 16.3342 7.49327 18.7974 9.32082 20.6136C11.1484 22.4298 13.6271 23.4501 16.2116 23.4501C18.7962 23.4501 21.2749 22.4298 23.1024 20.6136C24.93 18.7974 25.9567 16.3342 25.9567 13.7657V0L32.4511 6.42627Z" fill="url(#paint0_linear_50_19179)"/>
<path d="M18.7454 16.3597H13.6083C13.4953 16.3597 13.3834 16.3375 13.2791 16.2943C13.1747 16.2511 13.08 16.1878 13.0004 16.108C12.9209 16.0283 12.8579 15.9337 12.8153 15.8297C12.7727 15.7257 12.7512 15.6142 12.7522 15.5019V6.42627H19.6085V15.5019C19.6094 15.6148 19.5877 15.7268 19.5447 15.8313C19.5016 15.9358 19.4381 16.0307 19.3578 16.1105C19.2774 16.1904 19.1819 16.2535 19.0768 16.2963C18.9716 16.3391 18.859 16.3606 18.7454 16.3597Z" fill="url(#paint1_linear_50_19179)"/>
<path d="M12.7521 0.179932H6.45959V6.43328H12.7521V0.179932Z" fill="url(#paint2_linear_50_19179)"/>
<path d="M57.1201 18.5318C57.1406 18.9312 57.0618 19.3295 56.8906 19.6915C56.7194 20.0534 56.4611 20.3679 56.1386 20.6071C55.3463 21.1549 54.3952 21.4294 53.4309 21.3887C52.442 21.4355 51.4647 21.1611 50.6466 20.6071C50.3264 20.3658 50.0697 20.051 49.8988 19.6895C49.7278 19.3281 49.6477 18.9308 49.6651 18.5318V6.64771H45.1824V19.1406C45.1274 20.0445 45.305 20.9475 45.6983 21.7645C46.0917 22.5814 46.6879 23.2853 47.4307 23.8098C48.8994 24.8544 50.9111 25.387 53.41 25.387C55.5131 25.4918 57.5965 24.9404 59.3684 23.8098C60.1094 23.2822 60.7054 22.5783 61.1018 21.7626C61.4983 20.9469 61.6825 20.0454 61.6377 19.1406V6.64771H57.0992L57.1201 18.5318Z" fill="#E6E7E8"/>
<path d="M69.5242 6.64771H64.9927V25.0204H80.0071V21.1743H69.5242V6.64771Z" fill="#E6E7E8"/>
<path d="M76.3248 10.4938H82.2484V25.0204H86.7521V10.4938H92.6478V6.64771H76.3248V10.4938Z" fill="#E6E7E8"/>
<path d="M109.514 15.834C110.179 14.9426 110.531 13.8586 110.516 12.7488C110.527 11.6716 110.274 10.608 109.778 9.64985C109.299 8.74324 108.576 7.98651 107.69 7.46392C106.774 6.89926 105.712 6.61313 104.634 6.64074H94.3811V25.0342H98.8847V18.4626H103.019L107.537 24.8543L107.641 24.9927H110.774V21.6101L107.725 17.2867C108.44 16.968 109.057 16.4668 109.514 15.834ZM105.978 12.6935C105.989 13.271 105.786 13.8325 105.407 14.2707C105.202 14.4766 104.957 14.6378 104.686 14.7438C104.415 14.8498 104.125 14.8984 103.834 14.8863H98.8847V10.5076H103.834C104.122 10.494 104.41 10.5413 104.679 10.6462C104.948 10.7511 105.191 10.9113 105.393 11.1163C105.783 11.549 105.992 12.113 105.978 12.6935Z" fill="#E6E7E8"/>
<path d="M124.354 6.61304H119.837L112.618 21.7345V24.9857H116.099L118.062 20.8837H126.247L128.203 24.9857H131.684V21.8729L124.521 6.80675L124.354 6.61304ZM124.493 17.3074H119.732L122.113 12.3199L124.493 17.3074Z" fill="#E6E7E8"/>
<path d="M151 25.0134H144.902L142.64 22.0458L145.696 18.0752H145.703L151 25.0134Z" fill="#E6E7E8"/>
<path d="M140.942 11.8426L136.974 6.65454H130.876L137.886 15.834L133.194 21.9766V25.0134H136.974L136.995 24.9857L140.942 19.8253L143.155 16.9269L143.99 15.8409V15.834L140.942 11.8426Z" fill="url(#paint3_linear_50_19179)"/>
<path d="M151 6.65454L145.696 13.5996L142.654 9.60136L144.902 6.65454H151Z" fill="#E6E7E8"/>
</g>
<defs>
<linearGradient id="paint0_linear_50_19179" x1="8.8889" y1="-0.760917" x2="22.5478" y2="26.7349" gradientUnits="userSpaceOnUse">
<stop stop-color="#00F0F0"/>
<stop offset="1" stop-color="#2647D7"/>
</linearGradient>
<linearGradient id="paint1_linear_50_19179" x1="9.67551" y1="-1.85391" x2="24.3889" y2="27.7501" gradientUnits="userSpaceOnUse">
<stop stop-color="#00F0F0"/>
<stop offset="1" stop-color="#2647D7"/>
</linearGradient>
<linearGradient id="paint2_linear_50_19179" x1="7.82391" y1="-0.228196" x2="21.4897" y2="27.2608" gradientUnits="userSpaceOnUse">
<stop stop-color="#00F0F0"/>
<stop offset="1" stop-color="#2647D7"/>
</linearGradient>
<linearGradient id="paint3_linear_50_19179" x1="135.422" y1="-5.32644" x2="138.75" y2="22.3966" gradientUnits="userSpaceOnUse">
<stop stop-color="#00F0F0"/>
<stop offset="1" stop-color="#2647D7"/>
</linearGradient>
<clipPath id="clip0_50_19179">
<rect width="151" height="32" fill="white"/>
</clipPath>
</defs>
</svg>
