<svg xmlns="http://www.w3.org/2000/svg" width="40" height="40" viewBox="0 0 40 40" fill="none">
  <circle cx="20" cy="20" r="20" fill="#222F42"/>
  <path d="M31.7773 14.6574V24.6082C31.7766 25.177 31.6263 25.7357 31.3413 26.2286C31.0563 26.7216 30.6466 27.1315 30.153 27.4177L21.6846 32.7311C21.1894 33.0164 20.6274 33.1667 20.0553 33.1667C19.4832 33.1667 18.9212 33.0164 18.426 32.7311L9.95761 27.4177C9.46434 27.1311 9.0549 26.7211 8.76996 26.2283C8.48503 25.7354 8.3345 25.1769 8.33333 24.6082V14.6574H13.005V19.9708C13.005 21.8303 13.7468 23.6136 15.0671 24.9285C16.3874 26.2433 18.1781 26.982 20.0453 26.982C21.9124 26.982 23.7032 26.2433 25.0235 24.9285C26.3438 23.6136 27.0855 21.8303 27.0855 19.9708V10L31.7773 14.6574Z" fill="url(#paint0_linear_8861_56262)"/>
  <path d="M21.8757 21.8412H18.1645C17.9995 21.8399 17.8417 21.7741 17.725 21.6579C17.6084 21.5417 17.5422 21.3845 17.5409 21.2202V14.6548H22.4993V21.2252C22.4979 21.3891 22.4316 21.5457 22.3148 21.6611C22.198 21.7765 22.0402 21.8412 21.8757 21.8412Z" fill="url(#paint1_linear_8861_56262)"/>
  <path d="M17.5457 10.1284H12.9997V14.6556H17.5457V10.1284Z" fill="url(#paint2_linear_8861_56262)"/>
  <defs>
    <linearGradient id="paint0_linear_8861_56262" x1="14.75" y1="9.45413" x2="24.6561" y2="29.3385" gradientUnits="userSpaceOnUse">
      <stop stop-color="#00F0F0"/>
      <stop offset="1" stop-color="#2647D7"/>
    </linearGradient>
    <linearGradient id="paint1_linear_8861_56262" x1="15.3232" y1="8.66026" x2="25.9887" y2="30.0696" gradientUnits="userSpaceOnUse">
      <stop stop-color="#00F0F0"/>
      <stop offset="1" stop-color="#2647D7"/>
    </linearGradient>
    <linearGradient id="paint2_linear_8861_56262" x1="13.9854" y1="9.83295" x2="23.8865" y2="29.7173" gradientUnits="userSpaceOnUse">
      <stop stop-color="#00F0F0"/>
      <stop offset="1" stop-color="#2647D7"/>
    </linearGradient>
  </defs>
</svg>