<svg width="28" height="28" viewBox="0 0 28 28" fill="none" xmlns="http://www.w3.org/2000/svg"><circle cx="14" cy="14" r="14" fill="#2F3E53"/><path d="M18.857 9.334c-1.061 0-2.22.564-3.445 1.683-.584.526-1.09 1.09-1.46 1.548 0 0 .593.671 1.245 1.391.35-.438.867-1.031 1.45-1.566 1.09-.993 1.801-1.198 2.21-1.198 1.528 0 2.774 1.256 2.774 2.813a2.812 2.812 0 0 1-2.774 2.813 1.4 1.4 0 0 1-.263-.03c.448.205.925.35 1.382.35 2.803 0 3.348-1.897 3.387-2.033.078-.35.126-.71.126-1.09-.02-2.589-2.082-4.681-4.632-4.681Z" fill="url(#a)"/><path d="M9.066 18.667c1.06 0 2.219-.565 3.445-1.684.584-.526 1.09-1.09 1.46-1.548 0 0-.594-.671-1.246-1.391-.35.438-.866 1.031-1.45 1.567-1.09.992-1.8 1.197-2.209 1.197-1.528 0-2.774-1.256-2.774-2.813a2.812 2.812 0 0 1 2.774-2.813c.068 0 .165.01.263.03-.448-.205-.925-.35-1.382-.35-2.803 0-3.348 1.897-3.387 2.033-.078.35-.127.71-.127 1.09.01 2.58 2.083 4.682 4.633 4.682Z" fill="url(#b)"/><path fill-rule="evenodd" clip-rule="evenodd" d="M7.957 10.91c1.44.04 2.939 1.226 3.24 1.518.718.691 1.395 1.463 1.518 1.603l.02.023c.652.72 1.246 1.391 1.246 1.391l.01-.01c1.333 1.529 3.114 3.232 4.885 3.232 2.17-.01 4-1.538 4.487-3.591-.049.146-.769 2.063-3.397 1.995-1.43-.04-2.93-1.217-3.23-1.509-.79-.759-1.529-1.615-1.529-1.615-.652-.72-1.246-1.392-1.246-1.392-.01 0-.01.01-.01.01-1.323-1.538-3.104-3.231-4.875-3.231-2.17.01-4 1.527-4.487 3.571.059-.243.808-2.053 3.368-1.995Zm-3.378 2.005v-.02c.01.01.01.02 0 .02Z" fill="#29ABE2"/><defs><linearGradient id="a" x1="12.393" y1="12.64" x2="17.307" y2="20.199" gradientUnits="userSpaceOnUse"><stop offset=".21" stop-color="#F15A24"/><stop offset=".684" stop-color="#FBB03B"/></linearGradient><linearGradient id="b" x1="15.529" y1="15.358" x2="10.615" y2="7.799" gradientUnits="userSpaceOnUse"><stop offset=".21" stop-color="#ED1E79"/><stop offset=".893" stop-color="#522785"/></linearGradient></defs></svg>