<svg width="28" height="28" viewBox="0 0 28 28" fill="none" xmlns="http://www.w3.org/2000/svg"><circle cx="14" cy="14" r="14" fill="#222F42"/><path d="M22.244 10.26v6.966a2.271 2.271 0 0 1-1.137 1.966l-5.928 3.72a2.285 2.285 0 0 1-2.28 0l-5.929-3.72a2.287 2.287 0 0 1-1.137-1.966V10.26h3.27v3.72c0 1.301.52 2.55 1.444 3.47a4.938 4.938 0 0 0 6.97 0 4.898 4.898 0 0 0 1.443-3.47V7l3.284 3.26Z" fill="url(#a)"/><path d="M15.313 15.289h-2.598a.441.441 0 0 1-.436-.435v-4.596h3.47v4.6a.433.433 0 0 1-.436.43Z" fill="url(#b)"/><path d="M12.282 7.09H9.1v3.169h3.182v-3.17Z" fill="url(#c)"/><defs><linearGradient id="a" x1="10.325" y1="6.618" x2="17.259" y2="20.537" gradientUnits="userSpaceOnUse"><stop stop-color="#00F0F0"/><stop offset="1" stop-color="#2647D7"/></linearGradient><linearGradient id="b" x1="10.726" y1="6.062" x2="18.192" y2="21.049" gradientUnits="userSpaceOnUse"><stop stop-color="#00F0F0"/><stop offset="1" stop-color="#2647D7"/></linearGradient><linearGradient id="c" x1="9.79" y1="6.883" x2="16.721" y2="20.802" gradientUnits="userSpaceOnUse"><stop stop-color="#00F0F0"/><stop offset="1" stop-color="#2647D7"/></linearGradient></defs></svg>