<svg width="24" height="24" viewBox="0 0 24 24" fill="none" xmlns="http://www.w3.org/2000/svg"><path d="M23.641 14.903c-1.603 6.428-8.115 10.34-14.545 8.738C2.67 22.038-1.244 15.527.36 9.098 1.962 2.67 8.473-1.244 14.902.36c6.43 1.603 10.342 8.115 8.739 14.544Z" fill="#2F3E53"/><path d="M17.902 5h2.422l-5.04 4.99a4.71 4.71 0 0 1-6.611 0L3.63 5h2.424l3.829 3.79a2.982 2.982 0 0 0 4.186 0L17.902 5ZM6.024 18.875H3.601l5.072-5.02a4.71 4.71 0 0 1 6.611 0l5.073 5.02h-2.422l-3.861-3.821a2.982 2.982 0 0 0-4.187 0l-3.863 3.821Z" fill="#fff"/></svg>