<svg width="32" height="32" viewBox="0 0 32 32" fill="none" xmlns="http://www.w3.org/2000/svg"><path fill-rule="evenodd" clip-rule="evenodd" d="M32 9.14v2.742a2.746 2.746 0 0 1-2.743 2.744H16v13.716h1.828v-9.144a.914.914 0 1 1 1.829 0v9.144H25.6a2.746 2.746 0 0 0 2.742-2.743v-9.144a.914.914 0 1 1 1.829 0v9.144a4.577 4.577 0 0 1-4.571 4.572H10.057c-.505 0 .717-1.829 1.222-1.829h2.892V14.626H5.485v3.658a.914.914 0 1 1-1.828 0v-3.818a2.743 2.743 0 0 1-1.829-2.583V9.139a2.746 2.746 0 0 1 2.743-2.743h5.724a4.113 4.113 0 0 1 6.619-4.867 4.111 4.111 0 0 1 6.618 4.867h5.725a2.746 2.746 0 0 1 2.742 2.743Zm-1.83 2.742V9.14a.914.914 0 0 0-.913-.914h-9.6v4.572h9.6c.505 0 .914-.41.914-.915ZM20.115 1.825a2.286 2.286 0 1 1 0 4.572 2.286 2.286 0 0 1 0-4.572Zm-6.4 0a2.286 2.286 0 1 0 0 4.572 2.286 2.286 0 0 0 0-4.572ZM4.571 12.797a.914.914 0 0 1-.914-.915V9.14c0-.505.409-.914.914-.914h9.6v4.572h-9.6Zm13.257-4.572H16v4.572h1.828V8.225Z" fill="#F7F7F7"/><circle cx="18.743" cy="16.454" r=".914" fill="#F7F7F7"/><path fill-rule="evenodd" clip-rule="evenodd" d="M11.886 26.056A5.943 5.943 0 0 1 5.943 32a5.943 5.943 0 1 1 5.943-5.944Zm-1.829 0a4.115 4.115 0 1 0-8.23 0 4.115 4.115 0 0 0 8.23 0Z" fill="#ECC94B"/><path fill-rule="evenodd" clip-rule="evenodd" d="M5.942 21.941a4.115 4.115 0 1 1 0 8.23 4.115 4.115 0 0 1 0-8.23Z" fill="#ECC94B"/><path d="M5.486 28.342a.911.911 0 0 0 .646-.268l2.743-2.743a.914.914 0 0 0-1.293-1.293l-2.096 2.096-1.183-1.182a.914.914 0 0 0-1.292 1.293l1.828 1.829a.912.912 0 0 0 .647.268Z" fill="#0E141F"/></svg>