<svg width="26" height="26" viewBox="0 0 26 26" fill="none" xmlns="http://www.w3.org/2000/svg"><path d="M24.641 15.903c-1.603 6.428-8.115 10.34-14.545 8.738C3.67 23.038-.244 16.527 1.36 10.098 2.962 3.67 9.473-.244 15.902 1.36c6.43 1.603 10.342 8.115 8.739 14.544Z" fill="#2F3E53" stroke="#3772FF"/><path d="M18.902 6h2.422l-5.04 4.99a4.71 4.71 0 0 1-6.611 0L4.63 6h2.424l3.829 3.79a2.982 2.982 0 0 0 4.186 0L18.902 6ZM7.024 19.875H4.601l5.072-5.02a4.71 4.71 0 0 1 6.611 0l5.073 5.02h-2.422l-3.861-3.821a2.982 2.982 0 0 0-4.187 0l-3.863 3.821Z" fill="#fff"/></svg>