<svg width="24" height="24" viewBox="0 0 24 24" fill="none" xmlns="http://www.w3.org/2000/svg"><circle cx="12" cy="12" r="12" fill="#222F42"/><path d="M6 12.146c.086-.169.2-.321.303-.48l4.277-6.528c.453-.69.904-1.38 1.358-2.07.01-.017.016-.037.039-.043.028.021.018.05.018.075v6.551l-.018.018c-.079.031-.159.06-.238.092l-1.091.46-1.49.62-1.06.444c-.558.233-1.117.468-1.677.697-.137.06-.268.135-.421.164Z" fill="#fff"/><path d="M11.994 9.653V3.102c0-.026.011-.056-.017-.075.035-.06.042.003.05.013.085.124.167.25.25.377 1.885 2.88 3.773 5.758 5.659 8.636.02.03.048.056.051.093-.12-.01-.216-.074-.32-.116-.59-.241-1.175-.489-1.764-.735l-1.966-.822c-.56-.235-1.12-.473-1.682-.705-.086-.035-.164-.089-.26-.099a.025.025 0 0 0 0-.016Z" fill="#C1CCF7"/><path d="M11.998 9.67c.098.01.177.063.26.1.562.23 1.123.469 1.683.705l1.966.822c.587.246 1.174.493 1.764.735.104.042.202.106.32.116.03.044-.022.041-.04.051-.248.138-.495.272-.744.407l-1.395.758c-.728.393-1.457.787-2.185 1.183l-1.606.877a.055.055 0 0 1-.025.004v-.608c.002-1.716.002-3.433.002-5.15Z" fill="#8198EE"/><path d="M11.995 15.394v.033c-.132-.046-.245-.121-.364-.185-1.86-1.01-3.718-2.022-5.577-3.032l-.052-.031L6 12.146c.153-.03.284-.105.425-.162.56-.23 1.118-.465 1.677-.698.353-.147.706-.297 1.06-.444l1.49-.62 1.091-.46a5.82 5.82 0 0 1 .237-.092v5.623c-.001.034-.016.072.015.101Z" fill="#C1CCF7"/><path d="M12.013 20.989c-.043.034-.046-.013-.059-.028l-.58-.748c-1.179-1.53-2.358-3.056-3.537-4.585l-1.78-2.307a.96.96 0 0 1-.05-.067c.026-.017.042.001.06.01l3.315 1.8c.86.47 1.721.938 2.583 1.405l.032.013-.002.033v4.403c.002.025-.007.051.018.07Z" fill="#fff"/><path d="M12.014 20.989c-.025-.02-.016-.046-.016-.07v-4.402l.001-.033 3.592-1.95 2.301-1.25c.024-.012.047-.032.077-.032.01.031-.016.046-.03.066l-5.91 7.651-.015.02Z" fill="#C1CCF7"/><path d="M11.993 15.394c-.032-.03-.016-.067-.016-.101V9.67l.018-.018v5.168l-.002.574Z" fill="#707498"/></svg>