<svg width="72" height="52" viewBox="0 0 72 52" fill="none" xmlns="http://www.w3.org/2000/svg"><circle cx="24" cy="24" r="24" fill="#222F42"/><path d="M32.325 16c-1.819 0-3.804.968-5.906 2.886a23.663 23.663 0 0 0-2.503 2.653s1.018 1.151 2.136 2.386a24.6 24.6 0 0 1 2.486-2.686c1.868-1.702 3.086-2.052 3.787-2.052 2.62 0 4.755 2.152 4.755 4.821a4.82 4.82 0 0 1-4.755 4.822c-.117 0-.284-.017-.45-.05.767.35 1.584.6 2.368.6 4.805 0 5.74-3.253 5.806-3.486a8.522 8.522 0 0 0 .217-1.869C40.233 19.587 36.696 16 32.325 16Z" fill="url(#a)"/><path d="M15.541 32c1.819 0 3.804-.968 5.906-2.887a23.646 23.646 0 0 0 2.503-2.652s-1.018-1.152-2.136-2.386c-.6.75-1.485 1.768-2.486 2.686-1.868 1.702-3.086 2.052-3.787 2.052-2.62 0-4.755-2.152-4.755-4.822a4.82 4.82 0 0 1 4.755-4.821c.117 0 .284.016.45.05-.767-.35-1.584-.6-2.368-.6-4.805 0-5.74 3.252-5.806 3.486a8.55 8.55 0 0 0-.217 1.869C7.616 28.396 11.17 32 15.54 32Z" fill="url(#b)"/><path fill-rule="evenodd" clip-rule="evenodd" d="M13.64 18.703c2.468.067 5.038 2.102 5.555 2.602 1.23 1.185 2.39 2.508 2.602 2.748l.034.039a304.453 304.453 0 0 1 2.136 2.386l.016-.017C26.27 29.08 29.323 32 32.36 32c3.72-.017 6.857-2.636 7.691-6.156-.083.25-1.318 3.537-5.823 3.42-2.452-.067-5.022-2.086-5.539-2.586-1.351-1.302-2.62-2.77-2.62-2.77-1.117-1.234-2.135-2.386-2.135-2.386-.017 0-.017.017-.017.017C21.648 18.903 18.595 16 15.558 16c-3.72.017-6.857 2.62-7.692 6.123.1-.417 1.385-3.52 5.773-3.42ZM7.85 22.14v-.034c.016.017.016.034 0 .034Z" fill="#29ABE2"/><circle cx="42" cy="38" r="13.25" fill="#222F42" stroke="#3772FF" stroke-width="1.5"/><path d="M35 38.17c.1-.196.233-.374.354-.56 1.663-2.54 3.326-5.078 4.99-7.616.528-.805 1.054-1.61 1.583-2.415.013-.02.019-.042.046-.05.033.025.02.06.02.088v7.643c-.006.008-.014.013-.02.02-.092.037-.185.07-.277.108l-1.274.536-1.738.723-1.236.52c-.652.27-1.303.545-1.957.813-.16.068-.312.157-.491.19Z" fill="#fff"/><path d="M41.993 35.262v-7.643c0-.03.013-.065-.02-.088.041-.069.05.004.058.016.1.145.196.292.291.44 2.2 3.359 4.403 6.718 6.603 10.075.023.034.056.065.06.109-.14-.011-.252-.086-.372-.136-.69-.281-1.372-.57-2.059-.857l-2.294-.96c-.653-.273-1.307-.55-1.963-.822-.1-.04-.191-.104-.303-.115a.03.03 0 0 0 0-.02Z" fill="#C1CCF7"/><path d="M41.997 35.283c.115.012.206.073.304.115.656.27 1.31.547 1.963.823l2.294.959c.684.287 1.37.576 2.058.857.121.05.236.125.373.136.035.052-.025.048-.046.06-.29.16-.579.317-.868.474l-1.628.885c-.849.459-1.7.918-2.55 1.38-.624.34-1.248.683-1.873 1.023-.008.004-.02.004-.029.004v-.708c.002-2.002.002-4.006.002-6.008Z" fill="#8198EE"/><path d="M41.994 41.961v.038c-.154-.053-.285-.141-.425-.216l-6.507-3.537-.06-.036-.002-.04c.179-.034.331-.122.495-.19.654-.267 1.306-.54 1.957-.813l1.236-.518 1.738-.724 1.274-.536c.092-.038.183-.072.277-.107v6.56c-.002.04-.019.084.017.118Z" fill="#C1CCF7"/><path d="M42.015 48.487c-.05.04-.054-.015-.069-.032-.227-.291-.451-.582-.676-.873l-4.128-5.35-2.075-2.69a1.154 1.154 0 0 1-.058-.08c.029-.018.048.003.069.012l3.867 2.102c1.003.547 2.008 1.093 3.014 1.638l.037.016-.002.038v5.137c.002.029-.008.06.021.082Z" fill="#fff"/><path d="M42.016 48.487c-.03-.023-.02-.053-.02-.08V43.27c0-.014 0-.025.003-.039l4.19-2.273 2.685-1.459c.027-.015.054-.038.09-.038.012.036-.02.053-.036.077a36513.264 36513.264 0 0 1-6.912 8.95Z" fill="#C1CCF7"/><path d="M41.991 41.96c-.037-.034-.019-.078-.019-.118v-6.56l.021-.02v6.029l-.002.67Z" fill="#707498"/><circle cx="58" cy="38" r="13.25" fill="#222F42" stroke="#3772FF" stroke-width="1.5"/><path d="M66.244 34.26v6.966a2.271 2.271 0 0 1-1.137 1.966l-5.928 3.72a2.285 2.285 0 0 1-2.281 0l-5.928-3.72a2.286 2.286 0 0 1-1.137-1.966V34.26h3.27v3.72c0 1.301.52 2.55 1.444 3.47a4.939 4.939 0 0 0 6.97 0 4.898 4.898 0 0 0 1.442-3.47V31l3.285 3.26Z" fill="url(#c)"/><path d="M59.313 39.288h-2.598a.44.44 0 0 1-.437-.434v-4.596h3.471v4.6a.434.434 0 0 1-.436.43Z" fill="url(#d)"/><path d="M56.282 31.09H53.1v3.169h3.182v-3.17Z" fill="url(#e)"/><path d="M49.992 43.02h.004c.434.19.924.276 1.46.276.356 0 .688-.034.99-.107.309-.073.603-.187.883-.34.28-.154.553-.353.818-.592l.296-.268c.152.188.332.37.537.545.268.23.587.412.949.553l.01.003c.384.14.81.206 1.268.206.514 0 .987-.087 1.407-.277a2.33 2.33 0 0 0 1.015-.831c.254-.377.377-.806.377-1.27 0-.398-.083-.773-.288-1.086a1.944 1.944 0 0 0-.69-.673 3.306 3.306 0 0 0-.322-.177l.078-.06.805-.618.35-.27-.224-.38a2.49 2.49 0 0 0-1.09-1.003l-.216.451.216-.45a3.324 3.324 0 0 0-1.453-.318c-.71 0-1.337.172-1.836.56-.514.402-.775.953-.775 1.608 0 .096.005.19.016.282h-.188a3.858 3.858 0 0 0-.087-.323 3.07 3.07 0 0 0-.568-1.079 2.66 2.66 0 0 0-1.008-.77c-.406-.191-.865-.278-1.364-.278-.526 0-1.009.096-1.433.307a2.748 2.748 0 0 0-1.019.825 3.55 3.55 0 0 0-.57 1.139l-.003.006a4.6 4.6 0 0 0-.17 1.245c0 .43.061.848.185 1.254v.003c.128.409.325.78.59 1.11.28.346.633.61 1.05.796Zm.763-2.108a.722.722 0 0 1-.145-.171h1.302l-.014.053.074-.053h.699c-.15.134-.307.23-.472.293a1.952 1.952 0 0 1-.697.118c-.338 0-.574-.09-.747-.24Zm1.292-2.243a.58.58 0 0 1 .09.115h-1.515a.94.94 0 0 1 .263-.257c.114-.071.273-.12.5-.12a.9.9 0 0 1 .377.072l.008.004.01.004c.11.045.192.103.256.17l.005.007.006.005Zm2.44 1.035c0-.252-.02-.497-.062-.735l.161-.116c.035.225.105.437.22.63.155.257.358.471.607.637l.008.005c.053.034.108.067.163.099l-.256.223-.887.77-.31.27-.615-.746h.865l.065-.424c.019-.12.028-.24.03-.36.007-.097.011-.184.011-.253Zm1.595.859L56 40.429c.047.02.095.04.143.057l.007.003.008.003c.238.082.474.152.706.21l.004.001c.21.05.396.107.56.17a.993.993 0 0 1 .303.166l.002.001.001.017-.001.014a.03.03 0 0 1-.003.007.22.22 0 0 1-.065.061l-.008.006c-.065.048-.192.1-.438.1-.285 0-.498-.069-.666-.186a1.75 1.75 0 0 1-.471-.496Zm1.59-2.115a.976.976 0 0 1 .337.28 10.4 10.4 0 0 0-.532-.14 5.054 5.054 0 0 1-.558-.168 1.174 1.174 0 0 1-.098-.042.823.823 0 0 1 .316-.052c.198 0 .374.041.535.122Z" fill="#F7F7F7" stroke="#2F3E53"/><defs><linearGradient id="a" x1="21.244" y1="21.668" x2="29.668" y2="34.627" gradientUnits="userSpaceOnUse"><stop offset=".21" stop-color="#F15A24"/><stop offset=".684" stop-color="#FBB03B"/></linearGradient><linearGradient id="b" x1="26.621" y1="26.328" x2="18.197" y2="13.369" gradientUnits="userSpaceOnUse"><stop offset=".21" stop-color="#ED1E79"/><stop offset=".893" stop-color="#522785"/></linearGradient><linearGradient id="c" x1="54.325" y1="30.618" x2="61.259" y2="44.537" gradientUnits="userSpaceOnUse"><stop stop-color="#00F0F0"/><stop offset="1" stop-color="#2647D7"/></linearGradient><linearGradient id="d" x1="54.726" y1="30.062" x2="62.192" y2="45.048" gradientUnits="userSpaceOnUse"><stop stop-color="#00F0F0"/><stop offset="1" stop-color="#2647D7"/></linearGradient><linearGradient id="e" x1="53.79" y1="30.883" x2="60.72" y2="44.802" gradientUnits="userSpaceOnUse"><stop stop-color="#00F0F0"/><stop offset="1" stop-color="#2647D7"/></linearGradient></defs></svg>