<svg width="73" height="52" viewBox="0 0 73 52" fill="none" xmlns="http://www.w3.org/2000/svg"><circle cx="24.334" cy="24" r="24" fill="#222F42"/><path d="M38.467 17.589v11.94a3.894 3.894 0 0 1-1.95 3.372l-10.162 6.376a3.916 3.916 0 0 1-3.91 0l-10.162-6.376a3.9 3.9 0 0 1-1.95-3.371V17.589h5.607v6.376c0 2.231.89 4.371 2.475 5.95a8.466 8.466 0 0 0 5.973 2.463c2.24 0 4.39-.886 5.974-2.464a8.396 8.396 0 0 0 2.475-5.949V12l5.63 5.589Z" fill="url(#a)"/><path d="M26.584 26.21h-4.453a.755.755 0 0 1-.748-.745v-7.88h5.95v7.886a.743.743 0 0 1-.748.739Z" fill="url(#b)"/><path d="M21.389 12.154h-5.455v5.433h5.455v-5.433Z" fill="url(#c)"/><path d="m10.751 32.277.004.002c.689.3 1.48.441 2.36.441.59 0 1.13-.056 1.615-.173a5.64 5.64 0 0 0 1.424-.548 7.102 7.102 0 0 0 1.335-.968l.355-.32-.304-.369-1.22-1.48-.35-.425-.39.39a3.03 3.03 0 0 1-1.065.706c-.39.149-.828.227-1.32.227-.65 0-1.141-.177-1.515-.499-.254-.218-.441-.517-.545-.92h6.688l.065-.425c.03-.192.045-.384.046-.576.013-.17.02-.311.02-.42 0-.712-.1-1.389-.302-2.027a4.876 4.876 0 0 0-.91-1.728 4.2 4.2 0 0 0-1.6-1.22c-.638-.302-1.373-.445-2.188-.445-.859 0-1.63.157-2.3.49a4.354 4.354 0 0 0-1.619 1.308 5.731 5.731 0 0 0-.92 1.84l-.002.006a7.452 7.452 0 0 0-.279 2.036c0 .702.1 1.384.302 2.046v.003c.206.659.522 1.255.949 1.785.44.546.998.966 1.666 1.263Zm3.959-6.851c.036.09.064.18.084.274h-3.671a2.38 2.38 0 0 1 .17-.4 1.97 1.97 0 0 1 .651-.7c.264-.164.605-.26 1.05-.26.313 0 .574.056.793.155l.009.004.009.004c.232.095.417.222.564.379l.006.006.005.006c.147.147.254.316.322.511l.004.01.004.01Zm6.203 6.96.01.004c.612.224 1.298.33 2.052.33.841 0 1.6-.142 2.264-.444.673-.3 1.212-.73 1.59-1.297.394-.582.586-1.247.586-1.979 0-.636-.133-1.205-.438-1.668a2.974 2.974 0 0 0-1.065-1.04 5.51 5.51 0 0 0-1.288-.59 18.53 18.53 0 0 0-1.272-.348 9.072 9.072 0 0 1-1-.301c-.248-.095-.381-.184-.444-.247-.027-.027-.053-.066-.053-.166 0-.073.02-.152.178-.252.199-.116.465-.188.822-.188.392 0 .748.084 1.076.247.316.158.585.397.807.73l.297.445.424-.325 1.38-1.06.35-.27-.223-.38a3.913 3.913 0 0 0-1.715-1.578 5.342 5.342 0 0 0-2.337-.509c-1.16 0-2.15.28-2.927.886-.792.617-1.193 1.458-1.193 2.474 0 .56.114 1.068.372 1.497l.428-.257-.428.257c.237.396.549.724.931.98l.008.004c.364.233.755.428 1.172.587l.007.002.008.003c.399.137.793.255 1.181.352l.004.001c.37.09.704.19 1.002.302.28.105.484.225.628.35l.008.006.007.007c.063.05.113.123.113.29 0 .14-.055.28-.27.431l-.008.006c-.192.142-.495.242-.963.242-.551 0-.992-.136-1.348-.386a3.358 3.358 0 0 1-.905-.955l-.309-.503-.445.387-1.52 1.32-.352.305.28.372c.266.355.6.701.994 1.04a5.24 5.24 0 0 0 1.524.886Z" fill="#F7F7F7" stroke="#2F3E53"/><circle cx="42.334" cy="38" r="13.25" fill="#222F42" stroke="#3772FF" stroke-width="1.5"/><path d="M35.334 38.17c.1-.196.233-.374.354-.56 1.663-2.54 3.326-5.078 4.99-7.616.528-.805 1.054-1.61 1.583-2.415.013-.02.019-.042.046-.05.033.025.02.06.02.088v7.643c-.005.008-.014.013-.02.02-.092.037-.185.07-.277.108l-1.274.536-1.738.723-1.236.52c-.652.27-1.303.545-1.957.813-.16.068-.312.157-.491.19Z" fill="#fff"/><path d="M42.328 35.262v-7.643c0-.03.012-.065-.021-.088.041-.069.05.004.058.016.1.145.196.292.291.44 2.2 3.359 4.403 6.718 6.603 10.075.023.034.056.065.06.109-.14-.011-.252-.086-.373-.136-.688-.281-1.371-.57-2.058-.857l-2.294-.96c-.653-.273-1.307-.55-1.963-.822-.1-.04-.191-.104-.303-.115a.031.031 0 0 0 0-.02Z" fill="#C1CCF7"/><path d="M42.331 35.283c.115.012.206.073.304.115.656.27 1.31.547 1.963.823l2.294.959c.684.287 1.37.576 2.058.857.121.05.235.125.373.136.035.052-.025.048-.046.06-.29.16-.579.317-.868.474l-1.628.885c-.849.459-1.7.918-2.55 1.38-.624.34-1.248.683-1.873 1.023-.008.004-.02.004-.029.004v-.708c.002-2.002.002-4.006.002-6.008Z" fill="#8198EE"/><path d="M42.328 41.961v.038c-.154-.053-.285-.141-.425-.216l-6.507-3.537-.06-.036-.002-.039c.179-.034.33-.122.495-.19.654-.267 1.306-.54 1.957-.813l1.236-.518 1.738-.724 1.274-.536c.092-.038.183-.072.277-.107v6.56c-.002.04-.019.084.017.118Z" fill="#C1CCF7"/><path d="M42.349 48.487c-.05.04-.054-.015-.069-.032-.227-.291-.451-.582-.676-.873l-4.128-5.35-2.075-2.69c-.02-.026-.04-.052-.058-.08.029-.018.048.003.068.012l3.868 2.102c1.003.547 2.008 1.093 3.014 1.638l.037.016-.002.038v5.137c.002.029-.008.06.021.082Z" fill="#fff"/><path d="M42.35 48.487c-.03-.023-.02-.053-.02-.08V43.27c0-.014 0-.025.003-.039l4.19-2.273 2.685-1.459c.027-.015.054-.038.09-.038.012.036-.02.053-.036.077l-6.894 8.926-.018.023Z" fill="#C1CCF7"/><path d="M42.325 41.96c-.037-.034-.019-.078-.019-.118v-6.56l.021-.02v6.029l-.002.67Z" fill="#707498"/><circle cx="58.334" cy="38" r="13.25" fill="#222F42" stroke="#3772FF" stroke-width="1.5"/><path d="M66.578 34.26v6.966a2.271 2.271 0 0 1-1.137 1.966l-5.928 3.72a2.285 2.285 0 0 1-2.281 0l-5.928-3.72a2.287 2.287 0 0 1-1.137-1.966V34.26h3.27v3.72c0 1.301.52 2.55 1.444 3.47a4.938 4.938 0 0 0 6.97 0 4.898 4.898 0 0 0 1.443-3.47V31l3.284 3.26Z" fill="url(#d)"/><path d="M59.647 39.288h-2.598a.44.44 0 0 1-.437-.434v-4.596h3.471v4.6a.434.434 0 0 1-.436.43Z" fill="url(#e)"/><path d="M56.616 31.09h-3.182v3.169h3.182v-3.17Z" fill="url(#f)"/><path d="M50.326 43.02h.004c.434.19.924.276 1.46.276.356 0 .688-.034.99-.107.309-.073.603-.187.883-.34.28-.154.553-.353.818-.592l.296-.268c.152.188.332.37.537.545.268.23.587.412.949.553l.01.003c.384.14.81.206 1.268.206.514 0 .988-.087 1.407-.277a2.33 2.33 0 0 0 1.015-.831c.254-.377.377-.806.377-1.27 0-.398-.083-.773-.288-1.086a1.944 1.944 0 0 0-.69-.673 3.306 3.306 0 0 0-.322-.177l.078-.06.805-.618.35-.27-.224-.38a2.49 2.49 0 0 0-1.09-1.003l-.216.451.216-.45a3.324 3.324 0 0 0-1.453-.318c-.71 0-1.337.172-1.836.56-.514.402-.775.953-.775 1.608 0 .096.005.19.016.282h-.188a3.783 3.783 0 0 0-.087-.323 3.05 3.05 0 0 0-.568-1.079 2.66 2.66 0 0 0-1.008-.77c-.406-.191-.865-.278-1.364-.278-.526 0-1.008.096-1.433.307a2.76 2.76 0 0 0-1.02.825 3.564 3.564 0 0 0-.57 1.139l-.002.006a4.6 4.6 0 0 0-.17 1.245c0 .43.061.848.185 1.254v.003c.128.409.325.78.59 1.11.28.346.632.61 1.05.796Zm.763-2.108a.724.724 0 0 1-.145-.171h1.302l-.014.053.074-.053h.699a1.52 1.52 0 0 1-.473.293c-.2.076-.43.118-.696.118-.338 0-.573-.09-.747-.24Zm1.292-2.243a.576.576 0 0 1 .09.115h-1.515a.94.94 0 0 1 .263-.257c.114-.071.273-.12.5-.12a.9.9 0 0 1 .377.072l.009.004.008.004a.73.73 0 0 1 .257.17l.005.007.006.005Zm2.44 1.035c0-.252-.02-.497-.062-.735l.161-.116c.035.225.105.437.22.63.155.257.358.471.607.637l.008.005c.053.034.108.067.163.099l-.256.223-.887.77-.31.27-.615-.746h.865l.065-.424c.019-.12.028-.24.03-.36.007-.097.011-.184.011-.253Zm1.595.859-.082-.134c.047.02.095.04.143.057l.007.003.008.003c.238.082.474.152.706.21l.004.001c.21.05.395.107.56.17a.993.993 0 0 1 .303.166l.002.001.001.017a.052.052 0 0 1-.001.014l-.003.007a.218.218 0 0 1-.065.061l-.008.006c-.065.048-.192.1-.438.1-.285 0-.498-.069-.666-.186a1.75 1.75 0 0 1-.471-.496Zm1.59-2.115a.975.975 0 0 1 .337.28c-.18-.053-.358-.1-.532-.14a5.054 5.054 0 0 1-.558-.168 1.193 1.193 0 0 1-.098-.042.824.824 0 0 1 .316-.052c.198 0 .374.041.535.122Z" fill="#F7F7F7" stroke="#2F3E53"/><defs><linearGradient id="a" x1="18.034" y1="11.345" x2="29.921" y2="35.206" gradientUnits="userSpaceOnUse"><stop stop-color="#00F0F0"/><stop offset="1" stop-color="#2647D7"/></linearGradient><linearGradient id="b" x1="18.722" y1="10.393" x2="31.52" y2="36.084" gradientUnits="userSpaceOnUse"><stop stop-color="#00F0F0"/><stop offset="1" stop-color="#2647D7"/></linearGradient><linearGradient id="c" x1="17.116" y1="11.8" x2="28.998" y2="35.661" gradientUnits="userSpaceOnUse"><stop stop-color="#00F0F0"/><stop offset="1" stop-color="#2647D7"/></linearGradient><linearGradient id="d" x1="54.659" y1="30.618" x2="61.593" y2="44.537" gradientUnits="userSpaceOnUse"><stop stop-color="#00F0F0"/><stop offset="1" stop-color="#2647D7"/></linearGradient><linearGradient id="e" x1="55.06" y1="30.062" x2="62.526" y2="45.048" gradientUnits="userSpaceOnUse"><stop stop-color="#00F0F0"/><stop offset="1" stop-color="#2647D7"/></linearGradient><linearGradient id="f" x1="54.123" y1="30.883" x2="61.054" y2="44.802" gradientUnits="userSpaceOnUse"><stop stop-color="#00F0F0"/><stop offset="1" stop-color="#2647D7"/></linearGradient></defs></svg>