<svg width="24" height="24" viewBox="0 0 24 24" fill="none" xmlns="http://www.w3.org/2000/svg"><circle cx="12" cy="12" r="12" fill="#222F42"/><path d="M19.066 8.794v5.97a1.947 1.947 0 0 1-.974 1.687l-5.081 3.188a1.958 1.958 0 0 1-1.955 0L5.975 16.45A1.96 1.96 0 0 1 5 14.765v-5.97h2.803v3.188c0 1.115.445 2.185 1.237 2.974a4.233 4.233 0 0 0 5.974 0 4.198 4.198 0 0 0 1.237-2.975V6l2.815 2.794Z" fill="url(#a)"/><path d="M13.125 13.105H10.9a.378.378 0 0 1-.375-.373V8.793H13.5v3.942a.372.372 0 0 1-.374.37Z" fill="url(#b)"/><path d="M10.527 6.076H7.8v2.716h2.727V6.076Z" fill="url(#c)"/><path d="m5.107 16.367.004.002a3.19 3.19 0 0 0 1.279.241c.31 0 .6-.03.866-.094a3.07 3.07 0 0 0 .774-.297 3.8 3.8 0 0 0 .715-.518l.199-.18a3.8 3.8 0 0 0 .42.419c.238.203.519.363.834.486l.01.004c.34.124.713.18 1.112.18.449 0 .865-.076 1.235-.244.373-.166.681-.41.9-.737.227-.336.335-.717.335-1.129 0-.35-.072-.685-.258-.968a1.736 1.736 0 0 0-.614-.6 2.888 2.888 0 0 0-.18-.104l.667-.511.35-.27-.224-.38a2.206 2.206 0 0 0-.965-.888 2.92 2.92 0 0 0-1.276-.279c-.62 0-1.174.15-1.617.496a1.751 1.751 0 0 0-.693 1.434c0 .057.002.114.007.17H8.96a3.348 3.348 0 0 0-.063-.227 2.687 2.687 0 0 0-.5-.948 2.349 2.349 0 0 0-.89-.68A2.783 2.783 0 0 0 6.31 10.5c-.46 0-.884.084-1.26.27a2.44 2.44 0 0 0-.899.728 3.116 3.116 0 0 0-.5 1l-.002.006A3.96 3.96 0 0 0 3.5 13.59c0 .375.054.74.162 1.096v.003c.112.358.285.685.519.975l.389-.314-.39.314c.247.306.56.54.927.703Zm.73-1.926a.55.55 0 0 1-.024-.021h.877l-.037.147.203-.147h.366a1.166 1.166 0 0 1-.22.113 1.586 1.586 0 0 1-.572.097c-.276 0-.46-.074-.594-.189Zm2.855.445-.384-.466h.651l.065-.424a2.21 2.21 0 0 0 .026-.316c.006-.083.01-.158.01-.22a3.8 3.8 0 0 0-.046-.598l.01-.008c.035.16.093.312.177.453.138.23.32.42.542.57l.008.004.056.036-.145.126-.76.66-.21.183ZM6.64 12.483a.549.549 0 0 1 .183.117h-.995a.772.772 0 0 1 .11-.089.726.726 0 0 1 .391-.091.7.7 0 0 1 .293.055l.009.004.009.004Zm4.16 2.08a1.478 1.478 0 0 1-.342-.34c.186.063.369.117.55.162l.004.001c.177.043.334.09.472.142.087.033.15.067.195.097a.214.214 0 0 1-.009.007l-.008.006c-.039.029-.132.072-.333.072a.89.89 0 0 1-.529-.147Zm.886-2.116a.774.774 0 0 1 .052.029 7.992 7.992 0 0 0-.171-.042 5.437 5.437 0 0 1-.303-.084.93.93 0 0 1 .422.097l.22-.441-.22.441Z" fill="#F7F7F7" stroke="#2F3E53"/><defs><linearGradient id="a" x1="8.85" y1="5.672" x2="14.794" y2="17.603" gradientUnits="userSpaceOnUse"><stop stop-color="#00F0F0"/><stop offset="1" stop-color="#2647D7"/></linearGradient><linearGradient id="b" x1="9.194" y1="5.196" x2="15.593" y2="18.042" gradientUnits="userSpaceOnUse"><stop stop-color="#00F0F0"/><stop offset="1" stop-color="#2647D7"/></linearGradient><linearGradient id="c" x1="8.391" y1="5.899" x2="14.332" y2="17.829" gradientUnits="userSpaceOnUse"><stop stop-color="#00F0F0"/><stop offset="1" stop-color="#2647D7"/></linearGradient></defs></svg>