<svg width="119" height="28" viewBox="0 0 119 28" fill="none" xmlns="http://www.w3.org/2000/svg"><path d="M26.667 6.686v10.506a3.425 3.425 0 0 1-1.715 2.966l-8.94 5.61a3.446 3.446 0 0 1-3.44 0l-8.94-5.61a3.447 3.447 0 0 1-1.715-2.966V6.686h4.932v5.61c0 1.963.783 3.846 2.177 5.234a7.448 7.448 0 0 0 5.255 2.168c1.972 0 3.862-.78 5.256-2.168a7.387 7.387 0 0 0 2.177-5.234V1.77l4.953 4.916Z" fill="url(#a)"/><path d="M16.214 14.27h-3.918a.665.665 0 0 1-.659-.655V6.684h5.235v6.936a.654.654 0 0 1-.658.65Z" fill="url(#b)"/><path d="M11.643 1.905h-4.8v4.78h4.8v-4.78Z" fill="url(#c)"/><path d="M45.482 15.938a1.871 1.871 0 0 1-.748 1.586 3.414 3.414 0 0 1-2.066.597 3.488 3.488 0 0 1-2.123-.597 1.899 1.899 0 0 1-.754-1.586V6.87h-3.398v9.516a4.083 4.083 0 0 0 1.71 3.569c1.12.798 2.654 1.2 4.565 1.2a7.701 7.701 0 0 0 4.54-1.2 4.126 4.126 0 0 0 1.736-3.569V6.871h-3.462v9.067Zm9.461-9.088h-3.456v14.04h11.451v-2.94h-7.995V6.85Zm5.186 2.939h4.512V20.89h3.44V9.79h4.497V6.85h-12.45v2.94Zm25.313 4.088c.505-.683.772-1.51.76-2.358a5.016 5.016 0 0 0-.558-2.369 4.36 4.36 0 0 0-1.64-1.687 4.383 4.383 0 0 0-2.283-.592h-7.82v14.016h3.435V15.86h3.153l3.446 4.885.074.106h2.394v-2.559l-2.325-3.31a3.362 3.362 0 0 0 1.364-1.104Zm-2.696-2.4c.004.445-.16.877-.457 1.21a1.561 1.561 0 0 1-1.195.47H77.32v-3.35h3.775a1.599 1.599 0 0 1 1.189.46c.302.33.467.763.462 1.21Zm14.015-4.649h-3.445L87.81 18.38l-.026 2.49h2.654l1.497-3.135h6.244l1.491 3.135h2.655V18.5L96.83 6.971l-.069-.143Zm.106 8.168h-3.631l1.816-3.807 1.815 3.807Zm20.217 5.887h-4.651l-1.725-2.268 2.33-3.034h.005l4.041 5.302Z" fill="#E6E7E8"/><path d="m109.412 10.818-3.026-3.965h-4.651l5.346 7.015-3.578 4.695v2.321h2.883l.016-.02 3.01-3.945 1.688-2.215.637-.83v-.006l-2.325-3.05Z" fill="url(#d)"/><path d="m117.084 6.853-4.046 5.308-2.32-3.056 1.715-2.252h4.651Z" fill="#E6E7E8"/><defs><linearGradient id="a" x1="8.691" y1="1.193" x2="19.149" y2="22.186" gradientUnits="userSpaceOnUse"><stop stop-color="#00F0F0"/><stop offset="1" stop-color="#2647D7"/></linearGradient><linearGradient id="b" x1="9.296" y1=".355" x2="20.556" y2="22.957" gradientUnits="userSpaceOnUse"><stop stop-color="#00F0F0"/><stop offset="1" stop-color="#2647D7"/></linearGradient><linearGradient id="c" x1="7.884" y1="1.593" x2="18.337" y2="22.585" gradientUnits="userSpaceOnUse"><stop stop-color="#00F0F0"/><stop offset="1" stop-color="#2647D7"/></linearGradient><linearGradient id="d" x1="105.197" y1="-2.305" x2="107.75" y2="18.888" gradientUnits="userSpaceOnUse"><stop stop-color="#00F0F0"/><stop offset="1" stop-color="#2647D7"/></linearGradient></defs></svg>