<svg width="119" height="29" viewBox="0 0 119 29" fill="none" xmlns="http://www.w3.org/2000/svg">
<path d="M26.6683 6.68645V17.1917C26.6676 17.7922 26.5089 18.3821 26.208 18.9025C25.9071 19.4229 25.4746 19.8557 24.9535 20.1577L16.0132 25.7673C15.4904 26.0685 14.8971 26.2271 14.2931 26.2271C13.6891 26.2271 13.0958 26.0685 12.573 25.7673L3.63276 20.1577C3.11199 19.8553 2.67974 19.4224 2.37893 18.902C2.07812 18.3817 1.9192 17.7921 1.91797 17.1917V6.68645H6.84998V12.296C6.84998 14.259 7.63305 16.1417 9.02691 17.5298C10.4208 18.9179 12.3113 19.6978 14.2825 19.6978C16.2537 19.6978 18.1442 18.9179 19.5381 17.5298C20.932 16.1417 21.715 14.259 21.715 12.296V1.76953L26.6683 6.68645Z" fill="url(#paint0_linear_8348_5173)"/>
<path d="M16.213 14.2705H12.295C12.1209 14.2691 11.9542 14.1996 11.8311 14.0769C11.7079 13.9543 11.6381 13.7883 11.6367 13.6149V6.68359H16.8713V13.6202C16.8699 13.7931 16.8 13.9585 16.6767 14.0803C16.5534 14.2021 16.3867 14.2705 16.213 14.2705Z" fill="url(#paint1_linear_8348_5173)"/>
<path d="M11.643 1.9043H6.84375V6.68375H11.643V1.9043Z" fill="url(#paint2_linear_8348_5173)"/>
<path d="M45.4826 15.9383C45.4969 16.2434 45.4361 16.5473 45.3057 16.8237C45.1752 17.1001 44.979 17.3406 44.7341 17.5244C44.1286 17.9406 43.404 18.1502 42.6689 18.1218C41.9147 18.1576 41.1693 17.9479 40.5453 17.5244C40.3008 17.34 40.1045 17.0995 39.9733 16.8233C39.842 16.5472 39.7797 16.2436 39.7915 15.9383V6.87109H36.3937V16.3877C36.3532 17.0779 36.4887 17.767 36.7876 18.391C37.0865 19.015 37.5391 19.5535 38.1032 19.9564C39.2234 20.7548 40.7577 21.1566 42.6689 21.1566C44.2707 21.2386 45.858 20.8189 47.208 19.9564C47.7742 19.5538 48.2298 19.016 48.5331 18.3925C48.8364 17.769 48.9777 17.0797 48.9441 16.3877V6.87109H45.4826V15.9383Z" fill="#E6E7E8"/>
<path d="M54.9444 6.84961H51.4883V20.8919H62.9397V17.9523H54.9444V6.84961Z" fill="#E6E7E8"/>
<path d="M60.1289 9.78919H64.6415V20.8919H68.0817V9.78919H72.5784V6.84961H60.1289V9.78919Z" fill="#E6E7E8"/>
<path d="M85.444 13.8771C85.9485 13.1946 86.2151 12.3665 86.2032 11.5191C86.2146 10.6961 86.0232 9.8828 85.6457 9.15054C85.2644 8.44908 84.6967 7.86551 84.0047 7.46364C83.3128 7.06176 82.5233 6.85704 81.7224 6.87184H73.9023V20.8877H77.3372V15.8598H80.4907L83.9363 20.745L84.0106 20.8507H86.4049V18.2918L84.0796 14.9821C84.6247 14.7407 85.0956 14.3594 85.444 13.8771ZM82.747 11.4768C82.751 11.9228 82.5882 12.3544 82.2905 12.6876C82.1363 12.8459 81.95 12.9697 81.7441 13.0509C81.5381 13.132 81.3172 13.1686 81.096 13.1581H77.3213V9.80613H81.096C81.3153 9.79704 81.5342 9.83321 81.7388 9.91236C81.9435 9.99152 82.1295 10.112 82.2852 10.2661C82.5876 10.5969 82.7526 11.0296 82.747 11.4768Z" fill="#E6E7E8"/>
<path d="M96.7626 6.82812H93.3171L87.8117 18.3802L87.7852 20.8704H90.4396L91.9367 17.7352H98.1801L99.6719 20.8704H102.326V18.5018L96.8316 6.97087L96.7626 6.82812ZM96.8688 14.9966H93.2374L95.0531 11.1899L96.8688 14.9966Z" fill="#E6E7E8"/>
<path d="M117.083 20.8829H112.432L110.707 18.6148L113.038 15.5801H113.043L117.083 20.8829Z" fill="#E6E7E8"/>
<path d="M109.411 10.8188L106.385 6.85352H101.734L107.08 13.8694L103.502 18.5642V20.8852H106.385L106.401 20.8641L109.411 16.92L111.099 14.7047L111.736 13.8747V13.8694L109.411 10.8188Z" fill="url(#paint3_linear_8348_5173)"/>
<path d="M117.084 6.85352L113.039 12.1617L110.719 9.10578L112.434 6.85352H117.084Z" fill="#E6E7E8"/>
<defs>
<linearGradient id="paint0_linear_8348_5173" x1="8.69218" y1="1.19325" x2="19.1503" y2="22.1856" gradientUnits="userSpaceOnUse">
<stop stop-color="#00F0F0"/>
<stop offset="1" stop-color="#2647D7"/>
</linearGradient>
<linearGradient id="paint1_linear_8348_5173" x1="9.29547" y1="0.355044" x2="20.5552" y2="22.9573" gradientUnits="userSpaceOnUse">
<stop stop-color="#00F0F0"/>
<stop offset="1" stop-color="#2647D7"/>
</linearGradient>
<linearGradient id="paint2_linear_8348_5173" x1="7.8843" y1="1.59236" x2="18.3371" y2="22.5847" gradientUnits="userSpaceOnUse">
<stop stop-color="#00F0F0"/>
<stop offset="1" stop-color="#2647D7"/>
</linearGradient>
<linearGradient id="paint3_linear_8348_5173" x1="105.196" y1="-2.30358" x2="107.75" y2="18.8893" gradientUnits="userSpaceOnUse">
<stop stop-color="#00F0F0"/>
<stop offset="1" stop-color="#2647D7"/>
</linearGradient>
</defs>
</svg>
