<svg width="26" height="26" viewBox="0 0 26 26" fill="none" xmlns="http://www.w3.org/2000/svg">
<path d="M25.6683 5.68645V16.1917C25.6676 16.7922 25.5089 17.3821 25.208 17.9025C24.9071 18.4229 24.4746 18.8557 23.9535 19.1577L15.0132 24.7673C14.4904 25.0685 13.8971 25.2271 13.2931 25.2271C12.6891 25.2271 12.0958 25.0685 11.573 24.7673L2.63276 19.1577C2.11199 18.8553 1.67974 18.4224 1.37893 17.902C1.07812 17.3817 0.919203 16.7921 0.917969 16.1917V5.68645H5.84998V11.296C5.84998 13.259 6.63305 15.1417 8.02692 16.5298C9.42078 17.9179 11.3113 18.6978 13.2825 18.6978C15.2537 18.6978 17.1442 17.9179 18.5381 16.5298C19.932 15.1417 20.715 13.259 20.715 11.296V0.769531L25.6683 5.68645Z" fill="url(#paint0_linear_8348_18259)"/>
<path d="M15.213 13.2705H11.295C11.1209 13.2691 10.9542 13.1996 10.8311 13.0769C10.7079 12.9543 10.6381 12.7883 10.6367 12.6149V5.68359H15.8713V12.6202C15.8699 12.7931 15.8 12.9585 15.6767 13.0803C15.5534 13.2021 15.3867 13.2705 15.213 13.2705Z" fill="url(#paint1_linear_8348_18259)"/>
<path d="M10.643 0.904785H5.84375V5.68424H10.643V0.904785Z" fill="url(#paint2_linear_8348_18259)"/>
<defs>
<linearGradient id="paint0_linear_8348_18259" x1="7.69218" y1="0.193247" x2="18.1503" y2="21.1856" gradientUnits="userSpaceOnUse">
<stop stop-color="#00F0F0"/>
<stop offset="1" stop-color="#2647D7"/>
</linearGradient>
<linearGradient id="paint1_linear_8348_18259" x1="8.29547" y1="-0.644956" x2="19.5552" y2="21.9573" gradientUnits="userSpaceOnUse">
<stop stop-color="#00F0F0"/>
<stop offset="1" stop-color="#2647D7"/>
</linearGradient>
<linearGradient id="paint2_linear_8348_18259" x1="6.8843" y1="0.592852" x2="17.3371" y2="21.5852" gradientUnits="userSpaceOnUse">
<stop stop-color="#00F0F0"/>
<stop offset="1" stop-color="#2647D7"/>
</linearGradient>
</defs>
</svg>
