<svg xmlns="http://www.w3.org/2000/svg" width="25" height="24" viewBox="0 0 25 24" fill="none">
  <g clip-path="url(#clip0_8861_56297)">
    <rect x="0.5" width="24" height="24" rx="6" fill="white"/>
    <path d="M14.5241 9.66699H10.4796C10.3078 9.66699 10.1685 9.80625 10.1685 9.97806V14.0226C10.1685 14.1944 10.3078 14.3337 10.4796 14.3337H14.5241C14.6959 14.3337 14.8352 14.1944 14.8352 14.0226V9.97806C14.8352 9.80625 14.6959 9.66699 14.5241 9.66699Z" fill="black"/>
    <path d="M9.85558 5H5.81114C5.63932 5 5.5 5.13925 5.5 5.31113V9.35557C5.5 9.52739 5.63932 9.66671 5.81114 9.66671H9.85558C10.0275 9.66671 10.1667 9.52739 10.1667 9.35557V5.31113C10.1667 5.13925 10.0275 5 9.85558 5Z" fill="black"/>
    <path d="M19.189 5H15.1445C14.9726 5 14.8333 5.13925 14.8333 5.31113V9.35557C14.8333 9.52739 14.9726 9.66671 15.1445 9.66671H19.189C19.3608 9.66671 19.5 9.52739 19.5 9.35557V5.31113C19.5 5.13925 19.3608 5 19.189 5Z" fill="black"/>
    <path d="M9.85558 14.3335H5.81114C5.63932 14.3335 5.5 14.4727 5.5 14.6446V18.6891C5.5 18.8609 5.63932 19.0002 5.81114 19.0002H9.85558C10.0275 19.0002 10.1667 18.8609 10.1667 18.6891V14.6446C10.1667 14.4727 10.0275 14.3335 9.85558 14.3335Z" fill="black"/>
    <path d="M19.189 14.3335H15.1445C14.9726 14.3335 14.8333 14.4727 14.8333 14.6446V18.6891C14.8333 18.8609 14.9726 19.0002 15.1445 19.0002H19.189C19.3608 19.0002 19.5 18.8609 19.5 18.6891V14.6446C19.5 14.4727 19.3608 14.3335 19.189 14.3335Z" fill="black"/>
  </g>
  <defs>
    <clipPath id="clip0_8861_56297">
      <rect x="0.5" width="24" height="24" rx="12" fill="white"/>
    </clipPath>
  </defs>
</svg>