<svg width="57" height="52" viewBox="0 0 57 52" fill="none" xmlns="http://www.w3.org/2000/svg">
<circle cx="24.5" cy="24" r="24" fill="#222F42"/>
<path d="M38.6328 17.5889V29.5299C38.632 30.2124 38.4516 30.8828 38.1096 31.4744C37.7676 32.0659 37.276 32.5578 36.6836 32.9012L26.5216 39.2773C25.9273 39.6197 25.2529 39.8 24.5664 39.8C23.8798 39.8 23.2055 39.6197 22.6112 39.2773L12.4491 32.9012C11.8572 32.5574 11.3659 32.0653 11.024 31.4739C10.682 30.8825 10.5014 30.2123 10.5 29.5299V17.5889H16.106V23.965C16.106 26.1964 16.9961 28.3363 18.5805 29.9142C20.1648 31.492 22.3137 32.3784 24.5543 32.3784C26.7949 32.3784 28.9438 31.492 30.5281 29.9142C32.1125 28.3363 33.0026 26.1964 33.0026 23.965V12L38.6328 17.5889Z" fill="url(#paint0_linear_9294_44372)"/>
<path d="M26.7506 26.2096H22.2971C22.0991 26.2081 21.9097 26.1291 21.7697 25.9896C21.6297 25.8502 21.5504 25.6616 21.5488 25.4645V17.5859H27.4988V25.4705C27.4972 25.6671 27.4177 25.8551 27.2775 25.9935C27.1374 26.132 26.948 26.2096 26.7506 26.2096Z" fill="url(#paint1_linear_9294_44372)"/>
<path d="M21.5548 12.1543H16.0996V17.5869H21.5548V12.1543Z" fill="url(#paint2_linear_9294_44372)"/>
<path d="M10.917 32.2771L10.917 32.2771L10.9207 32.2787C11.6099 32.5783 12.4005 32.7202 13.2801 32.7202C13.8702 32.7202 14.4103 32.6641 14.8963 32.5465C15.3935 32.4293 15.8686 32.2464 16.3205 31.9985C16.7734 31.7502 17.2181 31.426 17.6553 31.0312L18.0099 30.7108L17.7059 30.3421L16.4859 28.8621L16.1358 28.4373L15.7466 28.8265C15.4185 29.1546 15.0636 29.387 14.6815 29.5331C14.2919 29.682 13.8534 29.7601 13.3601 29.7601C12.7106 29.7601 12.2198 29.5829 11.8463 29.2612C11.5923 29.0425 11.4045 28.7441 11.3011 28.3401H17.5601H17.9891L18.0543 27.9161C18.0838 27.7244 18.0991 27.5323 18.1001 27.3397C18.1128 27.1707 18.1201 27.0288 18.1201 26.9201C18.1201 26.208 18.0206 25.5315 17.8182 24.8934C17.6269 24.2482 17.3239 23.6703 16.9083 23.1649C16.4841 22.6355 15.9478 22.2291 15.3086 21.9455C14.6696 21.6426 13.9353 21.5 13.1201 21.5C12.261 21.5 11.4893 21.6573 10.8206 21.9907C10.1673 22.3032 9.62449 22.7391 9.20131 23.2983C8.78981 23.8421 8.48359 24.4565 8.2808 25.1373L8.28076 25.1373L8.27884 25.1441C8.09269 25.8028 7.99999 26.4819 7.99999 27.1801C7.99999 27.8818 8.10035 28.5642 8.30166 29.2257L8.30165 29.2257L8.30257 29.2286C8.50756 29.8875 8.8237 30.4838 9.25063 31.0138C9.69038 31.5597 10.2492 31.9803 10.917 32.2771ZM14.8759 25.4257C14.9116 25.5151 14.9397 25.6064 14.96 25.7001H11.289C11.3338 25.5604 11.3905 25.4272 11.4587 25.3C11.6182 25.014 11.8336 24.7825 12.11 24.6009C12.3737 24.436 12.7153 24.34 13.1601 24.34C13.4733 24.34 13.7343 24.3957 13.9532 24.4952L13.9619 24.4992L13.9708 24.5028C14.2033 24.5979 14.3885 24.7254 14.5353 24.882L14.5408 24.8879L14.5465 24.8936C14.6935 25.0406 14.7997 25.2095 14.8682 25.4052L14.8718 25.4156L14.8759 25.4257ZM21.0787 32.3859L21.0787 32.386L21.0887 32.3897C21.7008 32.6136 22.3874 32.7202 23.1405 32.7202C23.9824 32.7202 24.7416 32.5776 25.4055 32.2762C26.0784 31.9768 26.6166 31.5469 26.9957 30.9789C27.3886 30.3969 27.5806 29.7315 27.5806 29.0001C27.5806 28.3637 27.4483 27.795 27.1426 27.3317C26.8751 26.8944 26.5189 26.5453 26.0781 26.2914C25.6821 26.0432 25.2521 25.8473 24.7897 25.7028C24.3537 25.5666 23.9299 25.4502 23.5182 25.3541C23.1044 25.2505 22.7729 25.1497 22.5185 25.0528C22.2699 24.9581 22.1368 24.8692 22.0741 24.8065C22.0471 24.7795 22.0205 24.7397 22.0205 24.64C22.0205 24.5668 22.0402 24.4876 22.1993 24.3879C22.398 24.2718 22.6637 24.2 23.0205 24.2C23.413 24.2 23.7694 24.2835 24.0969 24.4472C24.4133 24.6054 24.6824 24.8442 24.9045 25.1774L25.2011 25.6223L25.6251 25.2966L27.0052 24.2366L27.3553 23.9676L27.1318 23.5869C26.7215 22.8879 26.1466 22.3589 25.4166 22.0091C24.7033 21.6673 23.9218 21.5 23.0805 21.5C21.9204 21.5 20.9293 21.7802 20.153 22.3858C19.3613 23.0032 18.9605 23.8438 18.9605 24.86C18.9605 25.4199 19.0741 25.9279 19.3317 26.3573L19.7605 26.1001L19.3317 26.3573C19.5694 26.7534 19.8808 27.0812 20.2631 27.3361L20.2631 27.3362L20.271 27.3412C20.6346 27.574 21.0257 27.7692 21.4432 27.9276L21.4503 27.9303L21.4575 27.9328C21.857 28.0705 22.251 28.1881 22.6392 28.2852L22.6392 28.2852L22.6432 28.2861C23.0132 28.3754 23.3468 28.4764 23.645 28.5883C23.9248 28.6932 24.1289 28.813 24.2731 28.9379L24.2805 28.9444L24.2882 28.9505C24.3514 29.0011 24.4005 29.0738 24.4005 29.2401C24.4005 29.3811 24.3459 29.5203 24.1315 29.6721L24.1315 29.672L24.1233 29.678C23.931 29.8202 23.6284 29.9201 23.1605 29.9201C22.6089 29.9201 22.1677 29.784 21.8117 29.5336C21.4197 29.248 21.1214 28.9289 20.9068 28.5788L20.5983 28.0755L20.1526 28.4626L18.6326 29.7826L18.2812 30.0878L18.5605 30.4601C18.8267 30.8151 19.1601 31.1612 19.5551 31.4998C19.9785 31.8627 20.4895 32.156 21.0787 32.3859Z" fill="#F7F7F7" stroke="#2F3E53" stroke-width="1.00001"/>
<circle cx="42.5" cy="38" r="13.25" fill="#222F42" stroke="#3772FF" stroke-width="1.5"/>
<path d="M50.7438 34.2602V41.2257C50.7433 41.6239 50.6381 42.015 50.4386 42.36C50.2391 42.7051 49.9523 42.9921 49.6068 43.1924L43.6789 46.9118C43.3323 47.1115 42.9389 47.2167 42.5384 47.2167C42.1379 47.2167 41.7445 47.1115 41.3979 46.9118L35.47 43.1924C35.1247 42.9918 34.8381 42.7048 34.6387 42.3598C34.4392 42.0148 34.3338 41.6238 34.333 41.2257V34.2602H37.6032V37.9796C37.6032 39.2812 38.1224 40.5295 39.0466 41.4499C39.9708 42.3703 41.2243 42.8874 42.5314 42.8874C43.8384 42.8874 45.0919 42.3703 46.0161 41.4499C46.9403 40.5295 47.4595 39.2812 47.4595 37.9796V31L50.7438 34.2602Z" fill="url(#paint3_linear_9294_44372)"/>
<path d="M43.8127 39.2883H41.2148C41.0993 39.2874 40.9888 39.2413 40.9072 39.16C40.8255 39.0787 40.7792 38.9686 40.7783 38.8536V34.2578H44.2492V38.8571C44.2482 38.9718 44.2018 39.0815 44.1201 39.1622C44.0383 39.243 43.9278 39.2883 43.8127 39.2883Z" fill="url(#paint4_linear_9294_44372)"/>
<path d="M40.7818 31.0898H37.5996V34.2589H40.7818V31.0898Z" fill="url(#paint5_linear_9294_44372)"/>
<defs>
<linearGradient id="paint0_linear_9294_44372" x1="18.2" y1="11.345" x2="30.0873" y2="35.2062" gradientUnits="userSpaceOnUse">
<stop stop-color="#00F0F0"/>
<stop offset="1" stop-color="#2647D7"/>
</linearGradient>
<linearGradient id="paint1_linear_9294_44372" x1="18.8876" y1="10.3925" x2="31.6861" y2="36.0837" gradientUnits="userSpaceOnUse">
<stop stop-color="#00F0F0"/>
<stop offset="1" stop-color="#2647D7"/>
</linearGradient>
<linearGradient id="paint2_linear_9294_44372" x1="17.2824" y1="11.7997" x2="29.1637" y2="35.6609" gradientUnits="userSpaceOnUse">
<stop stop-color="#00F0F0"/>
<stop offset="1" stop-color="#2647D7"/>
</linearGradient>
<linearGradient id="paint3_linear_9294_44372" x1="38.8247" y1="30.6179" x2="45.7589" y2="44.537" gradientUnits="userSpaceOnUse">
<stop stop-color="#00F0F0"/>
<stop offset="1" stop-color="#2647D7"/>
</linearGradient>
<linearGradient id="paint4_linear_9294_44372" x1="39.2259" y1="30.0616" x2="46.6917" y2="45.0482" gradientUnits="userSpaceOnUse">
<stop stop-color="#00F0F0"/>
<stop offset="1" stop-color="#2647D7"/>
</linearGradient>
<linearGradient id="paint5_linear_9294_44372" x1="38.2896" y1="30.883" x2="45.2203" y2="44.8021" gradientUnits="userSpaceOnUse">
<stop stop-color="#00F0F0"/>
<stop offset="1" stop-color="#2647D7"/>
</linearGradient>
</defs>
</svg>
